<?xml version="1.0" encoding="UTF-8"?>
<svg version="1.1" viewBox="0 0 1600 210" width="1280" height="1280" xmlns="http://www.w3.org/2000/svg">
<path transform="translate(0)" d="m0 0h1600v210h-1600z" fill="#0F2C0D"/>
<path transform="translate(0)" d="m0 0h781l1 7h2l2 4 3 2 13 3 24 2 1 1v23h-66l1 3-1 4 10-1h45l5 1-1 3-11 1v2l-2 1-49 1-5 12-2 9h25l5-1v-2h-5v-1l35-1v40l-1 21-4-5-13-20-10-16-3-4h-9l-8 4h-12v8h-1l-1 30-2 3-4-1-1 3-2 3-4 16-3 4-2 4-1-7v-67l1-33-52 1-4 14-3 2v2l2 1 26 1 11 1v8l-13 1 2 8-2 2-1 4h-2l-1 3-1-3-4-2-9-3-1-2-3-1-2-9-2 3-5 1v3l2 1-1 2 1 1-1 7 3 4 27 1 2 3 5 15h-2l-1 7-4 2-1 3h-2l-1 6-4-1-1-6-5-2-4-2h-4l-3 9h2v8h-3v2h-6v2l-5 1 9 2v3h-3l-1 2h-2l-6 4-1 3 17 2h11l11-1v4l4 1v4h-2v-2l-10 2-18-1-4 1-13 1-4-1v-3l-52-1-22-1v-7h4v2h75l-1-5v-30l2-43v-33l-9-1-1-5-2-1v5h-7v36l-2 54h-31l-9-1 1-6 2-3h2l2-5 5-7-6 5 2-4 11-12-2-5-11-14-1-3h8v-2h-11v-10l2-4 17 1-3-13-1-6h-34l1 29 2 7 10 11 3 4-1 5-9 9-7 9-1 4v9l-2 17-1 1h-14l1 4 2 2h-2l1 2 6 1v7l-3 4-9 2h-16l-2-2 1-4h-2l-1-11h20v-47l2-41v-22l-30-1-2 6-8 16-8 15-4 10-5 9h-1v-15l2-40h-27l-7 2-4 9v6h13l4 1v12l-4 77 18 1 3 2 1-7 7-16 9-17 13-28 9-19h1l-1 21-8 17-5 8-5 13-5 8-4 10h19l-2 2-18 1-1 5 5 2 3 2v-2h2l1 3-2 3h-3l1 6-1 2h-27l-21-1-5-3-5 1-4 3-7 1h-30l-1-2-5-2-1-1-1-11-2-1h33l1 2-1-4 1-22 5-75v-10h-58l4 16 1 1 32 1v13l-3 48-1 8-19 1-4 1v-2h-2l1-5 1-3-5-2-4-4-3-1-3 10-1 8-2 4-11 3 2 1 31 1v2l-4 1-28-1-4 4 1 4 4 3v9l-2 2-8 3-5 3h-8l-5-5 2-3 4 1v-2l-4-1v-9h19l-2-5 1-41 5-64h-53l-3 5-3 7v4l37 1v13l-3 36-2 23-1 4-4 2-1 3h-44l1 13 4 1v2l4 1 1 5-2 2-19 2-9-2-5-8v-4h14l7 1-1-5h3l-1-8-1-1v-33l1-13 1-1v-21l-2-6-4-3-8-3 4-1 11 2 1 1v-19h-31l-5 9-2 3 1 4h11l-2 6-12 20-10 17-7 11-3 3v-9l3-23 2-30v-8l-1-2-3-1h-20l-7 1-5 8-1 7 13-1 2 3v11h-2v3h-3l2 4v17h-14l10 1 1 4v21l-3 16-6-1-3 6-6-2-2 1v7l6-1 1 4-3 3-8 3-2 5 3 1-1 2h-2l-1 2-9 3-7 3-5-1-6-1-12 2-12-1v2l-10 3-7 4-12 2-4-1 1-2 5 1 1-3-1-1v-2h-12v-2l-5-1-2-3-1 2-23-1-21-1-6 1v-2l-12 1-1 6-2 7h3l1 6-18 1z" fill="#0E2C0D"/>
<path transform="translate(1009,30)" d="m0 0h19l1 2v131h-19l-1-60v-28h-39l-2-1 1 47 8-17 5-10 18 1 1 3v15l-9 1-3 4-17 49-22 1v8h8l7 1 1 4 6-1 12 2 7-1v-2l-6-2 1-5 4-2 4-1h11v4l3-1 2 1 1 4 8 2v2l9-1 1-4 9-3 7 1 7 3 1 2-2 2 7 4h17l7-1 1 1h9l4-2 7 1 1-1 15-1 2 3h9l7 2-1 2h-2v3l4 2 10 1 7 1 4-3h2l-1-3-2-2 1-1 9-1 10 4v2h2v3h7l7-1 6-3 7 1 3 3 1 5 2 1v2h6l5 3h3 18l6 1v2l-4 1h-1247v-8l2-1h16l-1-6h-3l1-7 2-7 10-1 2 1v2l7-2 21 1 18 1 4 1 1-4 2 4 6 3h9l2 1v2h2l-2 4h-5l-1 1 12-1 10-4 9-3h2v-2h15l11-2 5 2 7-1 11-5 5-2-2-2 1-5 5-3 6-1v-5h-6l-1-7 5-2 4 2 3-6 5 1 1-2 2-13v-25h-10l-2-2h15v-16l-1-4h3v-3h2l-1-11-1-2-13 1-1-1 1-7 5-8 1-1 7-1h20l4 2 1 2-2 38-3 23v7l7-10 9-16 11-18 6-11-11 1-2-2 1-5 3-4 4-7h31l1 1v20l-5-2-11-1 9 3 4 4 1 5v21l-1 1-1 13v33l1 1v8l-2 1v4l-21-1 2 5 3 5v2l9 1 19-2 1-5-4-2-1-2-3-1-1-4v-9h44l1-4 4-1 2-27 4-49h-37l-1-5 6-12 1-1h32l21 1v12l-4 52-1 41 1 5-7 1-12-1 1 3-1 6 4 1v2l-5 1 2 5h10l9-5 5-2v-9l-5-5 2-5h2l1-2 29 1h3v-2h-31l-3-3 12-3 4-18 2-3 4 1 8 6-1 6-1 2h2v2l4-2h19l1-24 3-45h-32l-2-2-3-16h58l1 3-1 21-4 61-1 22 1 5-2-1v-2l-31 1 2 11 7 2-1 2h30l9-2 3-3 7 1 2 2 48 2v-8l3-1 1-5h-2v2l-4-2-5-2 1-5 1-1 19-1-18-1 3-10 6-10 5-13 8-14 4-9 1-19-13 28-13 27-8 15-5 15-3-1-14-1-4-1v-23l3-54 1-12h-18v-7l5-10 7-2h25l2 1v17l-1 23v14l7-15 20-40h30l1 1v22l-2 41-1 47-19 1v10h2l1 5h18l7-2 2-4 1-6h-6l-2-5v-4l8-1h6l2-17v-12l14-16 4-4-1-5-11-13-2-2-1-6v-29h34l3 11 1 8h-17l-2 13h11v2h-8l13 17 2 5-7 7-6 8 6-5-2 4-6 9h-2l-3 9 40 1v-27l2-63h7v-5l3 1v5h9l1 1v33l-2 43v35h-75v-2h-4v7h22l50 1 3 3 8 1h8l1-2h3l19 1 9-1v2h2l-1-4-3-1v-4l-13 2h-10l-16-2-1-2h2v-2l-2-1 7-3v-2h4l2-2-10-2 4-2h3v-2h6v-2h3l-1-4 1-4h-2v-5h2l1-5 7 1 6 4 2 6 3 1 1-6h2l1-4h2l1-2 3-7-6-16-27-1-2-4-2-1 2-7h-2l1-2 1-1-4-1h2l-1-3 2-2h4l3-4 1 11 4 1v2l9 2 5 5 1-2h2l1-5 1-4-2-4 1-2h13v-8l-37-1-3-2 1-4h3l2-12 2-3h52v100l1 3 3-4 5-20h2l1-2h4l1-2 1-31h1v-9l1 2 12-1 8-4h9l8 11 11 18 10 15 1-19v-39l-29 1 1 3-6 1h-20l-5-1 1-9 5-12h73v51l-1 57h-23l-3-5-8-13-10-15-11-19-1-4h-2l-1 36 16 1v2h2v10l-1 3-1 12-2-3-1 1-1 5h-31v3l4 1v4l3 1 7 2 4 1v2l-10 1-6-1-8 2-6 5-11-3-10 1-2-1-4 4-10 1h-8l-6 1-8-3h-3l-1 2h2l-2 8h-36l-14-1h-38l-12-1h-3v-2h-2v2h-53l-22-2-4-2 1-2-5-1v-2l-6 2v2h-3v2h-237l5 1 88 2 80 1 37 1 119 1h636l-7-1-1-1-44-1-16-1h-63l-3-1-25-1-66 1-5-1v-2h-3l-2-5-2-2-7-1-3-4-1-2-5-1-1 7h-2l-1 4-7 1-3 1-7-1-1-4-6 1-4-1-9 1-8-2-2-3 1-2-7-1h-14l-8 2-11 1-7 1h-10l-5-1-10-1-8-2-4-2v-2l-2-1 1-3-15-1v-1h29l4-8v-2l-6-2 1-4 6-1h11v-16l1-10 8-11 9-11-1-5-9-9-6-8v-20l1-12h33l1 1 1 7v10h-10l-7-1 2 14 9 11 7 8 1 4-7 9-7 8-3 7-2 10h38v-88h20v109h-78v10h61l4 4 6 2 13-5 1-4-1-8v-6h2v-3h2v-2l3-2h6l1-95 40-1h21z" fill="#22441D"/>
<path transform="translate(643,50)" d="m0 0 3 1v5h9l1 1v33l-2 43v35h-75v-2h-4v7h22l50 1 3 3 8 1h8l1-2h3l19 1 9-1v2h2l-1-4-3-1v-4l-13 2h-10l-16-2-1-2h2v-2l-2-1 7-3v-2h4l2-2-10-2 4-2h3v-2h6v-2h3l-1-4 1-4h-2v-5h2l1-5 7 1 6 4 2 6 3 1 1-6h2l1-4h2l1-2 3-7-6-16-27-1-2-4-2-1 2-7h-2l1-2 1-1-4-1h2l-1-3 2-2h4l3-4 1 11 4 1v2l9 2 5 5 1-2h2l1-5 1-4-2-4 1-2h13v-8l-37-1-3-2 1-4h3l2-12 2-3h52v100l1 3 3-4 5-20h2l1-2h4l1-2 1-31h1v-9l1 2 12-1 8-4h9l8 11 11 18 10 15 1-19v-39l-29 1 1 3-6 1h-20l-5-1 1-9 5-12h73v51l-1 57h-23l-3-5-8-13-10-15-11-19-1-4h-2l-1 36 16 1v2h2v10l-1 3-1 12-2-3-1 1-1 5h-31v3l4 1v4l3 1 7 2 4 1v2l-10 1-6-1-8 2-6 5-11-3-10 1-2-1-4 4-10 1h-8l-6 1-8-3h-3l-1 2h2l-2 8h-36l-14-1h-38l-12-1h-3v-2h-2v2h-53l-22-2-4-2 1-2-5-1v-2l-6 2v2h-3v2h-237l5 1v1l-37 1h-3l-1-2h-27l-8-1v-1l9-1 65-1 1-4 16-6 5-1-1-4 2-1h13l43 2 10-1h8l5 2 1 1h10l3 2 1 4 7 1 1-2 1-1h9 4l1 2 4 1h18l5 1 4-2v-2h2v-2l9-3 9-1h5l1-3 10-4 3-3 7 1 2 2 48 2v-8l3-1 1-5h-2v2l-4-2-5-2 1-5 1-1 19-1-18-1 3-10 6-10 5-13 8-14 4-9 1-19-13 28-13 27-8 15-5 15-3-1-14-1-4-1v-23l3-54 1-12h-18v-7l5-10 7-2h25l2 1v17l-1 23v14l7-15 20-40h30l1 1v22l-2 41-1 47-19 1v10h2l1 5h18l7-2 2-4 1-6h-6l-2-5v-4l8-1h6l2-17v-12l14-16 4-4-1-5-11-13-2-2-1-6v-29h34l3 11 1 8h-17l-2 13h11v2h-8l13 17 2 5-7 7-6 8 6-5-2 4-6 9h-2l-3 9 40 1v-27l2-63h7z" fill="#2C5225"/>
<path transform="translate(1009,30)" d="m0 0h19l1 2v131h-19l-1-60v-28h-39l-2-1 1 47 8-17 5-10 18 1 1 3v15l-9 1-3 4-17 49-22 1v8h8l7 1 1 4 6-1 12 2 7-1v-2l-6-2 1-5 4-2 4-1h11v4l3-1 2 1 1 4 8 2v2l9-1 1-4 9-3 7 1 7 3 1 2-2 2 7 4h17l7-1 1 1h9l4-2 7 1 1-1 15-1 2 3h9l7 2-1 2h-2v3l4 2 10 1 7 1 4-3h2l-1-3-2-2 1-1 9-1 10 4v2h2v3h7l7-1 6-3 7 1 3 3 1 5 2 1v2h6l5 3h3 18l6 1v2l-5 1-39-1-4-2-10-1-38-1-16-1h-63l-3-1-25-1-66 1-5-1v-2h-3l-2-5-2-2-7-1-3-4-1-2-5-1-1 7h-2l-1 4-7 1-3 1-7-1-1-4-6 1-4-1-9 1-8-2-2-3 1-2-7-1h-14l-8 2-11 1-7 1h-10l-5-1-10-1-8-2-4-2v-2l-2-1 1-3-15-1v-1h29l4-8v-2l-6-2 1-4 6-1h11v-16l1-10 8-11 9-11-1-5-9-9-6-8v-20l1-12h33l1 1 1 7v10h-10l-7-1 2 14 9 11 7 8 1 4-7 9-7 8-3 7-2 10h38v-88h20v109h-78v10h61l4 4 6 2 13-5 1-4-1-8v-6h2v-3h2v-2l3-2h6l1-95 40-1h21z" fill="#2B5125"/>
<path transform="translate(679,56)" d="m0 0h52v100l1 3 3-4 5-20h2l1-2h4l1-2 1-31h1v-9l1 2 12-1 8-4h9l8 11 11 18 10 15 1-19v-39l-29 1 1 3-6 1h-20l-5-1 1-9 5-12h73v51l-1 57h-23l-3-5-8-13-10-15-11-19-1-4h-2l-1 36 16 1v2h2v10l-1 3-1 12-2-3-1 1-1 5h-31v3l4 1-2 4-13 1-1 2h-14l-4-1-2 1-13-4-2-1-7-2-2 1v-3l-3 1-3-2 9-1v2h2l-1-4-3-1v-4l-13 2h-10l-16-2-1-2h2v-2l-2-1 7-3v-2h4l2-2-10-2 4-2h3v-2h6v-2h3l-1-4 1-4h-2v-5h2l1-5 7 1 6 4 2 6 3 1 1-6h2l1-4h2l1-2 3-7-6-16-27-1-2-4-2-1 2-7h-2l1-2 1-1-4-1h2l-1-3 2-2h4l3-4 1 11 4 1v2l9 2 5 5 1-2h2l1-5 1-4-2-4 1-2h13v-8l-37-1-3-2 1-4h3l2-12z" fill="#22451E"/>
<path transform="translate(1146,176)" d="m0 0h19l2 2v7l4-2 9 3 2 2 13-2 3-1h10l7 2 4 2 16 1 10-4 2-4 7-4h29l8 4h6l4 4 5 2h2l3-3h2v4l8 1 8-4 2-2v2l10 1 2-3h2l4 4h13l3-1v-2l10-3 2-1 4 2v-2h10l3 1 14 1 3 5h26v-3l5-1h5v2h9l5 1h3v-2l6-1v2l10 3 8 1h11l12-2h3v-2l7-1h9l1-2v2l8-1 26 1 10 6h7l7 1 11 1v17h-353l4-1v-2h-24l-5-1-4-2-5-1v-2l-3-1-2-6-3-2-7 1-5 2-11 1-2-1v-3h-2v-2l-11-3-8 1 3 3-5 5-7 1-2-1-10-1-5-3 1-3 2-2-8-1h-8l-1-2 12-1 4-4z" fill="#22451E"/>
<path transform="translate(772,123)" d="m0 0 5 5 6 9 3 6v2l3 1 1 5h2v3h2l4 7v2h2l2 4v3h2v7h15l1 5v2h5l4 2 12 2h5l4 1h12l2-1 17-2 5-1h16l3 3-1 1 4 3 11 1 4-1 9 1 1 4h9l1-1 7-1 1-3h2l-1-4 2-3h5l4 6 8 1 1 3 2 1 1 2-1 2h3v2l72-1 24 1 9 1h60l13 1 45 1 3 1 6 1-2 2h-636l-119-1-37-1-80-1-88-2-7-2v-1l239 1v-2h3v-2h2l1-2h3v2l5 1v2l3 1 22 2h51l2 1v-2l17 2h43l11 1 34 1v-7-1l2-4 4 1v2l10 1 3-1 2 1 1-2 4 1 10-1 4-4 6 1 6-1 11 3 8-6 9-1 4 1h9v-2l-5-1-8-1-3-3 1-3-3-1v-3h31v-8h2l1 2 3-22h-2v-2h-9l-7-1v-2l12-1-9-9v-6z" fill="#3B683F"/>
<path transform="translate(95,54)" d="m0 0h28l3 2 1 9-2 26-2 7 3 6 6 7 12 16 1 4h2l1-11 1-3 2-18 4-31 2-12 1-1h16l4 5-1 13-4 30-4 29-3 29h-20l-4-2-12-16-13-16h-1l-2 35-4-1h-31l-2-2-6-27-4-14v-7l11-6 21-14 3-10 2-9h-18l1-6 4-6 3-5z" fill="#CAC0AD"/>
<path transform="translate(208,54)" d="m0 0h20l4 2 1 2-2 38-3 23v7l7-10 9-16 11-18 6-11-11 1-2-2 1-5 3-4 4-7h31l1 1v20l-5-2-11-1 9 3 4 4 1 5v21l-1 1-3 44-2 12-3 1-2-1-15-1-2-3 4-34v-15h-2l-2 6-10 18-9 15-7 13h-27l-4-2 5-40 3-35v-11l-1-2-13 1-1-1 1-7 5-8 1-1z" fill="#CAC0AD"/>
<path transform="translate(1009,30)" d="m0 0h19l1 2v131h-19l-1-60v-28h-39l-2-1 1 47 8-17 5-10 18 1 1 3v15l-9 1-3 4-17 48h-12l-11-1v-108l39-1h21z" fill="#C9C0AC"/>
<path transform="translate(473,55)" d="m0 0h25l2 1v17l-1 23v14l7-15 20-40h30l1 1v22l-2 41-2 45h-20l-1-1 2-53 1-29-13 28-13 27-8 15-5 15-3-1-14-1-4-1v-23l3-54 1-12h-18v-7l5-10z" fill="#CAC0AD"/>
<path transform="translate(1101,56)" d="m0 0h28l1 1 1 19 1 52v36l-3 1-19-1-13-18-6-4-12-22-7-12-1 38 17-1-1 10-3 9h-33l-1-2 1-65 1-4 26-6 3-1 10 16 11 16 7 10 1-54-48 3h-12l2-10 3-9z" fill="#C9C0AD"/>
<path transform="translate(757,57)" d="m0 0h73v51l-1 57h-23l-3-5-8-13-10-15-11-19-1-4h-2l-1 36 16 1-1 7-4 12h-18l-13-1v-34l1-26 1-7 15-7 4-2h9l8 11 11 18 10 15 1-19v-39l-29 1 1 3-6 1h-20l-5-1 1-9z" fill="#CAC0AD"/>
<path transform="translate(1225,30)" d="m0 0h19l2 51 1 9v12l1 15h1l1 31v17l-62 1h-21l-1-3-1-31v-55l1-3h-16l2-17h33v28l2 45v15h40l-3-88v-26z" fill="#CAC0AD"/>
<path transform="translate(1347,56)" d="m0 0h83l2 37h1l1 28 2 27v15l-4 2-18 2-3-74h-1l1-20-7 1-33-1v25l2 47 1 5-1 14-3 3h-12v-2l-4 3h-2l-2-52-2-22-1-21z" fill="#B8B09A"/>
<path transform="translate(852,57)" d="m0 0h33l1 1 1 7v10h-10l-7-1 2 14 9 11 7 8 1 4-7 9-7 8-3 7-2 10h38v-88h20v109l-78-1v-32l8-11 9-11-1-5-9-9-6-8v-20z" fill="#C9C0AD"/>
<path transform="translate(643,50)" d="m0 0 3 1v5h9l1 1v33l-2 43-1 29-1 1-77-1-1 2-1-10 1-11v-12l14-16 4-4-1-5-11-13-2-2-1-6v-29h34l3 11 1 8h-17l-2 13h11v2h-8l13 17 2 5-7 7-6 8 6-5-2 4-6 9h-2l-3 9 40 1v-27l2-63h7z" fill="#C9C0AC"/>
<path transform="translate(534,100)" d="m0 0h1l-1 34-1 29 20 1v-16h1v18l-19 1v10h2l1 5h18l7-2 2-4 1-6h-6l-2-5v-4l8-1h6l2-2 1 4h78l1 1v5h-75v-2h-4v7h22l50 1 3 3 8 1h8l1-2h3l18 1 7 1 5 2 7 1 2 2 10 3 2-1 4 1 14 1 1-3 7-1 8 1 3 1 7 2 4 1v2l-10 1-6-1-8 2-6 5-11-3-10 1-2-1-4 4-10 1h-8l-6 1-8-3h-3l-1 2h2l-2 6-2-4-1-3-9-1 2-1-5-4h-3v2l-3 1-3-3h-3l-2-2-50-2h-7l-4-2-9-1h-29l-27-3h-8l4 2-5 1-2-2-11-1h-6l-2-2h21v-8l3-1 1-5h-2v2l-4-2-5-2 1-5 1-1 19-1-18-1 3-10 6-10 5-13 8-14z" fill="#22451E"/>
<path transform="translate(1463,56)" d="m0 0h48l1 18-1 1h-26l-10-1-1 12-1 6 9-1h31l2 34h2l1 19v20l-1 1h-36l-1 5h-1v-6l1-4-5-5-1-3 3-6h16l1-35h-44l-1 6h-1l1-10 9-39z" fill="#C9C0AC"/>
<path transform="translate(657,63)" d="m0 0h2l4 9h4 1l-2-6 2-1v3l3 1 1 6 2 1 26 1 11 1v8l-13 1 2 8-2 2-1 4h-2l-1 3-1-3-4-2-9-3-1-2-3-1-2-9-2 3-5 1v3l2 1-1 2 1 1-1 7 3 4 27 1 2 3 5 15h-2l-1 7-4 2-1 3h-2l-1 6-4-1-1-6-5-2-4-2h-4l-3 9h2v8h-3v2h-6v2l-5 1 9 2v3h-3l-1 2h-2l-6 4-1 3 17 2h11l11-1v4l4 1v4h-2v-2l-10 2-18-1-4 1-13 1-4-1v-3l-52-1-22-1v-7h4v2h75l-1-5v-30l2-43z" fill="#0E2C0D"/>
<path transform="translate(384,55)" d="m0 0h58l1 3-1 21-4 61-1 23h-34l-3-2-1-12v-6h18l1-25 3-45h-32l-2-2z" fill="#CAC0AD"/>
<path transform="translate(1071,107)" d="m0 0 3 3 13 23 6 10 6 4 11 16 21 1 1-32h1l1 18 1 3v8h29l1-29h1l1 34 21-1h62v3h-82l-1 10-7-1h-14l-11 3-4 4h-12l-1-1h-14l-1 2-7-1-4 2h-9l-5-1-3 1h-18l-7-5 2-3-1-2 30-1 1-5-34-1-2-3v-4h2l2-23h1v24h33l4-18-3 1h-14z" fill="#0E2C0D"/>
<path transform="translate(678,195)" d="m0 0 4 1v2l10 1 3-1 2 1 1-2 7 3 3 3 1-3h6l2-1 5 1h3l11 1 4 2 67-1h49l40 3h14l9 2-1 2h-347l-119-1-37-1-80-1-88-2-7-2v-1l239 1v-2h3v-2h2l1-2h3v2l5 1v2l3 1 22 2h51l2 1v-2l17 2h43l11 1 34 1v-7-1z" fill="#3C683F"/>
<path transform="translate(772,123)" d="m0 0 5 5 6 9 3 6v2l3 1 1 5h2v3h2l4 7v2h2l2 4v3h2v7h15l1 5v2h5l4 2 12 2h5l4 1h12l2-1 17-2 5-1h16l3 3-1 1 4 3 11 1 4-1 9 1 1 4h9l1-1 7-1 1-3h2l-1-4 2-3h5l4 6 8 1 1 3 2 1 1 2-1 2h3v2l-8-1-2-2v-3l-11 1-5 3h-2l-2 4-1 1h-18v-2l-3 1-15-1-1-3-12-2-10-3-10-1h-18l-5-1-27-1-12-1-12 2-2 3-13 5-2 1v-3l-8-2v-2l-5 2h-8l-8-1-4-2-6 3-4 6-7-1-11-1h-3l-6-1-3 1h-4l-1 2-4-2 1-3 7-1 4-4 6 1 6-1 11 3 8-6 9-1 4 1h9v-2l-5-1-8-1-3-3 1-3-3-1v-3h31v-8h2l1 2 3-22h-2v-2h-9l-7-1v-2l12-1-9-9v-6z" fill="#326035"/>
<path transform="translate(948,57)" d="m0 0h1v108h11l12 1v1l-22 1v8h8l7 1 1 4 6-1 12 2 7-1v-2l-6-2 1-5 4-2 4-1h11v4l3-1 2 1 1 4 8 2v2l9-1 1-4 9-3 7 1 7 3 1 2-2 2 7 4h17l7-1 1 1h9l4-2 7 1 1 3h-2v-2l-5 2-2 2-9 1-3-2-1 1-2-1h-3l-7 1-7-1h-14l-5 1-3-1v-2h-5l-6-2-14 2h-14l-4-1-3 1-16 2-1-3-6-2-5 2-16-1-5-2-1-1h-7l-3 5h-3v-2l-8 3-13 1v-3l-14 1h-14l-8 2-11 1-7 1h-10l-5-1-10-1-8-2-4-2v-2l-2-1 1-3-15-1v-1h29l4-8v-2l-6-2 1-4 6-1h11v-16h1v22h75v1h-75v10h61l4 4 6 2 13-5 1-4-1-8v-6h2v-3h2v-2l3-2h6z" fill="#25451F"/>
<path transform="translate(1275,55)" d="m0 0h18l32 1 1 1 3 55 1 22v1 29l-1 2h-17v2l-3 1-2-43v-51h-14l-26-1v2l-2-1 4-17 2-2z" fill="#CAC0AD"/>
<path transform="translate(311,54)" d="m0 0h32l21 1v12l-6 82-2 14-17-1-5-1 4-40 4-49h-37l-1-5 6-12z" fill="#C9C0AC"/>
<path transform="translate(968,74)" d="m0 0 41 1 1 28v60h19v5h-19l-16-1-4-1h-7l-1-3-3 1-1-2-4-1 2-9 12-34 4-5h9l-1-18h-18l-10 22-3 6h-1z" fill="#0F2B0D"/>
<path transform="translate(679,56)" d="m0 0h52v33l-1 65-1 9h-19v-30l2-59-16 1h-22l3-16z" fill="#CAC0AD"/>
<path transform="translate(0,206)" d="m0 0h59l63 1h53l41-1h199l37 1 119 1h528l147 1v1h-1246z" fill="#11260E"/>
<path transform="translate(1408,56)" d="m0 0h22l2 37h1l1 28 2 27v7l-2 6-4 2h-15l-2-44v-10l1-2h2l-1-7-2-1v-14l3 1 1-2 1 1 1-2h-2v-2h3l4-15 2-6-13 1v3l3 2 2-3 1 2 3 1-3 6-6 1-28-1-14-1-2 6-1 17-2 1-2-11-2-5-6 3-3 8-3 2-1-3v-18l-1-8 4-2 4 4 8-1 7-2 8 3 9 1h19v-4l-17-3-2-2z" fill="#CAC0AD"/>
<path transform="translate(535,79)" d="m0 0h1l-1 21-8 17-5 8-5 13-5 8-4 10h19l-2 2-18 1-1 5 5 2 3 2v-2h2l1 3-2 3h-3l1 6-1 2h-27l-21-1-5-3-5 1-4 3-7 1h-30l-1-2-5-2-1-1-1-11-2-1h33l1 2-1-4v-8l1-1h13l13 1-5 4-8 3v2l18 1 3 2 3 5 4 2-3-9h18l3 2 1-7 7-16 9-17 13-28z" fill="#0F2C0D"/>
<path transform="translate(382,127)" d="m0 0 4 1 8 6-1 6-1 2h2v2l4-2h19v1h-18l2 16v2l2 1 35 1-1 4-1-3-31 1 2 11 7 2-1 2h35l-4 2h-2l-1 4h-10l-4 1-9 2-2 5-6 2-10-1h-11l-5-2v-2l-4 2v-2h-9l-1 2-1 1h-8l-1-5-2-1h-12v-4l9-2 6-4 5-2v-9l-5-5 2-5h2l1-2 29 1h3v-2h-31l-3-3 12-3 4-18z" fill="#22451E"/>
<path transform="translate(3,159)" d="m0 0 9 1h28l38 2v3l-7-1 1 5 6 2 2 9-1 4-23-1-21-1-6 1v-2l-12 1-1 6-2 7h3l1 6-18 1v-42z" fill="#0E2C0D"/>
<path transform="translate(762,9)" d="m0 0h19v9h45l1 1v23h-37l-29-1v-23z" fill="#C9BFAC"/>
<path transform="translate(171,108)" d="m0 0h1v19l-1 6h-2v12l-1 20-3 1h-17l4 6 1 2-6 2-10-1v-2l-3-1h2v-4h-2v3l-4 1-5-1v3l-4 3-11 1-8-2-2-1v-2l-5 1-1 1h-5l-1-3-3-2 1-4v3l30 1 2-2v-2h-26l-8-2v10l-3 5h-2l-1-8-6-1-1-1v-5l7 1v-5h32l4 2v-17l1-18 2-2 10 13 11 14 4 5v2l8 1h11l5 1 1-17z" fill="#323220"/>
<path transform="translate(621,189)" d="m0 0h27l5 3h2l1 2h2v-2l3-1 3 2 2 1 1 2h4v2l3-1 2 10h-36l-14-1h-38l-12-1h-3v-2h-2v2h-53v-1l12-1 3-1h8v-2l2 1 13 1 12-1 3-2v-5l3-3 5 1 6 2 7-1 8-2 10 2 5-1 1-2z" fill="#3A5B33"/>
<path transform="translate(534,100)" d="m0 0h1l-1 34-1 29 20 1v-16h1v18l-19 1v10h2v2l-3-1-2 2-7 1h-3l-9 1 4 2-5 1-2-2-11-1h-6l-2-2h21v-8l3-1 1-5h-2v2l-4-2-5-2 1-5 1-1 19-1-18-1 3-10 6-10 5-13 8-14z" fill="#343F25"/>
<path transform="translate(484,196)" d="m0 0h4v2l5 1v2l3 1 22 2h51l2 1v-2l16 2v1l-29 1h-46l-4-1h-5l-2 1-2-1v2h-47l-37-1-80-1-88-2-7-2v-1l239 1v-2h3v-2h2z" fill="#3A663D"/>
<path transform="translate(968,74)" d="m0 0 41 1v72h-1l-1-18h-1l-1-18 1-17h-4l-1 3v-2h-19l-10 22-3 6h-1z" fill="#18180C"/>
<path transform="translate(949,16)" d="m0 0 54 1-1 23h-37l-8-1v-1l13-2h28v-2l-30 1-4 1-20-2 1-6 2-4z" fill="#CAC0AD"/>
<path transform="translate(683,178)" d="m0 0h12l5 2 7 1 2 2 10 3 2-1 4 1 14 1 1-3 7-1 8 1 3 1 7 2 4 1v2l-10 1-6-1-8 2-6 5-11-3-10 1-2-1-4 4-10 1h-8l-6 1-8-3h-3-1v-8l2-5h2z" fill="#2B5124"/>
<path transform="translate(391,17)" d="m0 0h49l3 1 1 4-1 16-2-1v-2h-32l-25-1 1-6z" fill="#C9BFAC"/>
<path transform="translate(883,185)" d="m0 0h19l3 3-1 1 4 3 11 1 4-1 9 1 1 4h9l1-1 7-1 1-3h2l-1-4 2-3h5l4 6 8 1 1 3 2 1 1 2-1 2h3v2l-8-1-2-2v-3l-11 1-5 3h-2l-2 4-1 1h-18v-2l-3 1-15-1-1-3-12-2-10-3-11-2-6-2v-2h-6v-1l17-2z" fill="#326035"/>
<path transform="translate(994,169)" d="m0 0h11v4l3-1 2 1 1 4 8 2v2l9-1 1-4 9-3 7 1 7 3 1 2-2 2 7 4h17l7-1 1 1h9l4-2 7 1 1 3h-2v-2l-5 2-2 2-9 1-3-2-1 1-2-1h-3l-7 1-7-1h-14l-5 1-3-1v-2h-5l-6-2-14 2h-14l-4-1-3 1-16 2-1-3-6-2-2-1 1-1 18 1 2-2-6-3 1-5 4-2z" fill="#22451E"/>
<path transform="translate(1413,60)" d="m0 0h13v5l-3 9-3 8-3-1v2h2l-1 3h-4v13h2v8h-2v13l1 23v20l17-1 3-2 1 3-4 2-18 2-3-74h-1l1-20-7 1-33-1v25l2 47 1 5-1 14-3 1-2-5-2 4-2-3-2 3v-8l2-6-1-3 2-2v-3l-1-4 1-6-2 1v-8l3-1v3l1-2-1-5v-7l1-4 2-4v-33l2-2 14 1 32 1 2-1 2-5-6 1-4-4zm-45 62 1 3z" fill="#B8B39C"/>
<path transform="translate(795,202)" d="m0 0h61l40 3h14l9 2-1 2h-74l-92-1-17-1 1-3 14-1z" fill="#567B57"/>
<path transform="translate(1107,25)" d="m0 0h2v3h30l5-2h7l9 3-1 4-7 4-11 4h-8l-4 7-4 1-1-1-1-7h-9l-1 5v6h-5l-5-9v-2l-5-1-4-2-4-7v-1l13-1z" fill="#0B3812"/>
<path transform="translate(1450,111)" d="m0 0h44v29l-1-4-7-2-1-2-8-2-17-1-9-1-4-3 2-11z" fill="#060702"/>
<path transform="translate(1095,74)" d="m0 0h15l1 3-1 54-2-3-14-20-11-17-2-4 16-1h13v-8l-39 1-21 1v-3z" fill="#0F2C0D"/>
<path transform="translate(772,123)" d="m0 0 5 5 6 9 3 6v2l3 1 1 5h2v3h2l4 7v2h2l2 4v3h2v7h15l1 3-7 1-22 1-5 1v-3l-5 1v2h-16l-8-1-2-2-4-1v-3h31v-8h2l1 2 3-22h-2v-2h-9l-7-1v-2l12-1-9-9v-6z" fill="#454B33"/>
<path transform="translate(1e3 20)" d="m0 0h2l2 3 17 1 2 1h4l1 5h-21v26h-19l-9-2 3-2 10-2 3-2-41-1-2 2-4 1-5-3-1-6h58z" fill="#14200E"/>
<path transform="translate(1474,163)" d="m0 0 5 1 1 4 1-3h40l1 2v9l-2 3-6 1-8 3h-15l-10-2-7-3-2-2-2-6 3-6z" fill="#041704"/>
<path transform="translate(775,86)" d="m0 0h36v27l-1 21-4-5-13-20-10-16-3-4-5-1z" fill="#413F2B"/>
<path transform="translate(1071,107)" d="m0 0 3 3 13 23 4 7 2 5 10 15 6 7 19 1 2 1 1 7-8 1h-13l-5-5-8-11-6-10-2-2v-4l-4 1h-14z" fill="#0C0C06"/>
<path transform="translate(1568,137)" d="m0 0h8l6 2 1 7 17 4v16h-13l-11-1-14-1v-1l7-1-3-5-3-1v-2l-7 1 1-5 6-3 2-5 4-1z" fill="#0B3913"/>
<path transform="translate(382,127)" d="m0 0 4 1 8 6-1 6-1 2h2v2l4-2h19v1h-18l2 16v2l2 1 35 1-1 4-1-3h-33v2h-4v7h-1l-1-7 1-1-2-1v-2l-21 2h-11l-1-5 1-1 19-1h15l1-3h-32l-3-3 12-3 4-18z" fill="#22451E"/>
<path transform="translate(850,166)" d="m0 0h49l28 1 1 7-1 1-14 1h-63l-1-5z" fill="#16160A"/>
<path transform="translate(260,112)" d="m0 0h2v13h-2v13l-1 5h-2v-3h-2l1 9-3-2-1 2h-2l-2 7-3 2v5l-3 5h2l1 8-3 3h-14v-4l-19-2v-7h23l4-2 5-15 6-8 3-7 4-9h2l1-4 3-1z" fill="#080803"/>
<path transform="translate(10)" d="m0 0h68l3 3 4 2-3 3h-10l-4 1h-12l-4-1-6-1-7 2-3 1v2l7-1h3l3 1v2h-2v2l-5 2-10 1v-2h-2v-4l-5-5h-2v2h-5v-3l-8-1-1-2-1 2h-5v-2z" fill="#061C06"/>
<path transform="translate(1268,75)" d="m0 0h4v2h3v3l17 1h12l1 6-3 1v3l3 1 1 3v31h1v15l-4 2-1-6h2l-2-6v-5l-1-1-1-25v-2l-18-5-1-3-14-1-4-2 1-5 3-1z" fill="#071E07"/>
<path transform="translate(829,108)" d="m0 0h1v62h-23v6h-3v-6h-2l-2-7h-2l-4-7v-2h-2v-3h-2l-2-5-3-3-7-13-5-6 1 9 8 7v2l-3 1h-9v-31l1-3h2l8 15 14 22 6 9 5 9 23 1z" fill="#1A1A0E"/>
<path transform="translate(260,125)" d="m0 0h2l-1 14-2 20 1 1 15 1 4 1 2-12 1-13h1l1 15 1 1v8l-2 1v4l-21-1 1 9h2v2l-12 2-3 2h-3v2l-8-1 3-1 1-4h2l-1-8h-2l2-7 1-4 3-1 2-7h2l1-3 2 2-1-6 1-2h2v3h2z" fill="#363624"/>
<path transform="translate(1472,91)" d="m0 0h41v3h-2l-2 6h-3-2l-8 3-2 2-8 1h-8l-6 1h-11l-6-1 2-10 4-4h4v2l7 1z" fill="#B8B09A"/>
<path transform="translate(973,161)" d="m0 0h5l1 3 4-2v4l8-1 3 1 35 2 1-4v5h-19l-1 4h-3-2v-4l-11 1-8 2-1 5 7 1-1 4-7 1-13-2-5 1-2-3 1-2-15-1-1-2v-6l1-1h22z" fill="#122E10"/>
<path transform="translate(1371,77)" d="m0 0h39l-1 21-2 3-4-4v-7h-11l-15 3-1 14-1 3h-2l-1 3-1-23z" fill="#040601"/>
<path transform="translate(1515,64)" d="m0 0h2l1 6-2 6-1 2h-2v12h-39v-10l1-6 38 1v-10z" fill="#050502"/>
<path transform="translate(1357,202)" d="m0 0h6v2h6l1-2 10 2h9v-1h6l5 1 10 1 10-1 1-1 15 1 1 2-3 3h-10-3l-2 1h-80l-68-1v-2l81-1 3-2z" fill="#315F34"/>
<path transform="translate(532,11)" d="m0 0h65l22 1-4 2h-60l-1 3 2 2 12-1 4-1 2 1v2l6 1v2h-4l-1 2h-2v2h-7l-2-2-1 3 4 1 4-1 1 3h3l-1 3-3 1h-10l-1 2-8-1-6-3-7 1 2-5h5l1-5-2-1v-2h3l1-5 1-2-17-1z" fill="#21441D"/>
<path transform="translate(555,138)" d="m0 0 2 1 1 4v9l-1 3h15l1 5-1 1h-14l1 4 2 2h-2l1 2 6 1v7l-3 4-9 2h-16l-2-2 1-4h-2l-1-11h20v-27z" fill="#0E2C0D"/>
<path transform="translate(240,201)" d="m0 0 144 1 55 1 4 2-5 1h-103l-88-2-7-2z" fill="#5E7F5C"/>
<path transform="translate(553,148)" d="m0 0h1v18l-19 1v10h2v2l-3-1-2 2-7 1h-3l-9 1 4 2-5 1-2-2-11-1h-6l-2-2h21v-8l3-1 1-5h-2v2l-4-2-5-2 1-5 1-1 24-1 2 6 20 1z" fill="#293B1E"/>
<path transform="translate(1050,139)" d="m0 0h1v24h33l4-18 2 4 4 5 8 13 4 5v3l-10 1h-13l-1-1v-5l-34-1-2-3v-4h2z" fill="#323220"/>
<path transform="translate(1168,169)" d="m0 0 8 1h13l6-1h55l-2 4h-2v3l-2 1-63 1-14-1-1-4z" fill="#030701"/>
<path transform="translate(312,207)" d="m0 0h140l100 2v1h-240z" fill="#030C02"/>
<path transform="translate(810,73)" d="m0 0h1v13h-36v2l-8 1v-2l-15-1v-6l23-1 6-2v-2h-5v-1z" fill="#070703"/>
<path transform="translate(827,33)" d="m0 0 2 4 2 5-1 7h-2l4 7h-25l2-1v-2l11-2 1-2h-60v-7h66l-1-6z" fill="#070803"/>
<path transform="translate(1429,62)" d="m0 0h1l2 31h1l1 32-3 1-1 6h-3l3-15-1-6-2-3-3 10-1 5 2 4v6l-1 2-5-2 2-5h-3v-32l2-4 2 3 4-17 2-7z" fill="#B8B09A"/>
<path transform="translate(573,158)" d="m0 0 2 4h78l1 1v5h-75v-2h-4v2h-5v-2l-9-1-2-4 7-1h6z" fill="#605C47"/>
<path transform="translate(1347,56)" d="m0 0h61v1l-18 1 17 3 1 3-1 2-8 1h-16l-11-3-3-1-9 3-5-1-3-2v-2l-3 2 1 16-1 15h-1l-1-21z" fill="#B8B09A"/>
<path transform="translate(171,108)" d="m0 0h1v19l-1 6h-2v12l-1 20-3 1h-17v6l-8-2-9-5-8-1-1-4 4-3-3-3v-10l3-1v5l7 2 2-2 7 9v2l8 1h11l5 1 1-17z" fill="#3F3E29"/>
<path transform="translate(158,55)" d="m0 0h16l4 5-1 13-4 30-4 29-3 29h-20l-4-2 1-2 7 1h12l2-9 1-15 1-3 1-17 1-6 2-9 2-11h-2v-5l2 1 1-4v-16l-1-6h-4v5l-5 1-2-1-2 5v6l-3 1 2 12v5l-5-3 1-13 3-20z" fill="#B8B29B"/>
<path transform="translate(535,79)" d="m0 0h1l-1 21-8 17-5 8-5 13-5 8-2 6-5-1-1-4 8-19 16-34z" fill="#0C0C07"/>
<path transform="translate(144,200)" d="m0 0h9l1 2h-2l1 2h2l1-2v2h9l6-2 37 1 6 1h68l53 1v1l-119 1-49 1-30-1 1-3 6-1-2-2z" fill="#24481F"/>
<path transform="translate(589,174)" d="m0 0h58l2 1 1 5-5 3-8 2h-7l-10-1h-14l-6-2v-2h-3v-2l-4-1z" fill="#333F24"/>
<path transform="translate(1543,32)" d="m0 0 10 2 5 2 1 2-3 9-3 3-12 1-12-3-4-5-4-4v-2l9-2h6z" fill="#0B3812"/>
<path transform="translate(887,117)" d="m0 0 4 2 3 6-2 4 5 2-3 4-5-2-1 1 2 1v5l6 1 4-3 1 2 2-4v-2h2v-2l-2-1v-4l2-2 1-4-2-1h3v16h-2l-1 7-3 1h-30v-9l7-8z" fill="#071D07"/>
<path transform="translate(503,205)" d="m0 0h8l5 1h52l25-1h38l11 1h35l27 1v1l-11 1h-122l-72-1v-2z" fill="#4D7651"/>
<path transform="translate(385,62)" d="m0 0 2 4 2 6 32 1v5h-30l4 19 2 5v4h-14l-2-1-1-8 3-5 3 1-1-17 1-2z" fill="#323C23"/>
<path transform="translate(1105,78)" d="m0 0h5v8l-13 1h-18l-5 2-18 4h-5l-1-10 19-1 1-2z" fill="#0A0B06"/>
<path transform="translate(385,47)" d="m0 0h47l10 1v7h-58z" fill="#40412B"/>
<path transform="translate(260,109)" d="m0 0h2l1 2v13h-1v-12l-1 1v7l-2 2-2-1-1 4-2 1-4 10-3 6-6 9-2 7-3 7-4 2h-29l-1-3h-2v-9l2 4 7 1h20l3 1 2-6 12-21 6-10z" fill="#404930"/>
<path transform="translate(208,84)" d="m0 0h1l-1 27-3 25-2 17-1 2h-2v9h2l1 2h6v7h12l7 1 1 2-2 2-8 1h-18l-5-2 1-5 2-12h-2l-3-4 2-4v2l5-2 1-15 1-3v-25h-10l-2-2h15v-16l-1-4h3z" fill="#323F24"/>
<path transform="translate(575,166)" d="m0 0h4v2h52l21 1 1 5h-56l-22-1z" fill="#070703"/>
<path transform="translate(754,180)" d="m0 0 11 2h14l2 1v-2l5-1 1 2 4-1 28-1 1 4h5l-1 2-33 3-6 1h-13l-8-3-8-1-3-3z" fill="#3A5A33"/>
<path transform="translate(1413,60)" d="m0 0h13v5l-3 9-3 8-3-1v2h2l-1 3h-4v13h2v8h-2v13l1 23v20l17-1 3-2 1 3-4 2-18 2-3-74h-1l1-20-7 1-3-2h16l2-1 2-5-6 1-4-4z" fill="#B8B09A"/>
<path transform="translate(208,54)" d="m0 0h20l4 2 1 2-2 38-2 14h-1v-10l-3-5 2-5 2-4v-9l2-20-28 2 2 4 7 9 3-2h5l-1 5-7 3-2 2-2-9-13 1-1-1 1-7 5-8 1-1z" fill="#B8B59D"/>
<path transform="translate(674,82)" d="m0 0h1l1 11 4 1v2l9 2 5 5 1-2h2l1-4v3l6-1-1 3h-2v2l2 1h-4l3 7-2 3-2-7-27-1-2-4-2-1 2-7h-2l1-2 1-1-4-1h2l-1-3 2-2h4z" fill="#22451E"/>
<path transform="translate(1095,74)" d="m0 0h15l1 3-1 54-2-3-9-13v-2l4-1 1-8-1-6h2l1-3 1 2-1 5h2v-12l2-12-39 1-21 1v-3z" fill="#202413"/>
<path transform="translate(955,46)" d="m0 0h13l29 1v3l-9 2-5 2 7 1-2 2h-39l2-5z" fill="#2D331F"/>
<path transform="translate(286,160)" d="m0 0 2 2v4l4 1v2l4 1 1 5-2 2-19 2-9-2-5-8v-4h21z" fill="#0E2A0C"/>
<path transform="translate(1132,132)" d="m0 0h1l1 18 1 3v8h29l1-29h1l1 34 21-1h62v3h-82l-1 4h-2v-8h-33z" fill="#2E4A26"/>
<path transform="translate(968,74)" d="m0 0 41 1v2h-40v8l8-3 9 2 3 1 19 2v4l-25 1h-14l1 24 2 1-3 6h-1z" fill="#101809"/>
<path transform="translate(508,136)" d="m0 0 1 2-4 9v4h4l-1 4h-2l-3 16 1 2-1 3h-2l-1 2-2-1v-3l-5 2v-3l-13 1-2-6-3-2v-2h18l3 2 1-7 7-16z" fill="#161E0E"/>
<path transform="translate(1225,30)" d="m0 0h19l2 51 1 9v28l-2-2-2-48v-33l-9 5-1 3 3 1v3l-6 1h-4l-1 9h-1v-26z" fill="#B8B59E"/>
<path transform="translate(672,71)" d="m0 0h3v3h37v27l-1 6h-12v-2l2-1v-2l3-3-6 1 1-8-2-4 1-2h13v-8l-37-1-3-2z" fill="#353925"/>
<path transform="translate(1537,181)" d="m0 0h4v2l9-1 1 1h11l7-1 19 1 7 3 5 1v6l-3 1-9-1-13-1-6-3-4-3-28-1-23 1v2l-3-1h2v-4h13l9-1z" fill="#0B3913"/>
<path transform="translate(475,127)" d="m0 0h1v13l-1 23 4 1h-4l3 5v4l-4-1-3-3v-3l-13-2-8-1-1-3 9-3 2-2-23-2 1-2h32l3 1z" fill="#254620"/>
<path transform="translate(1328,59)" d="m0 0 2 2 3 17 1 11v10l-1 6v7l2 6-1 6v6l-1 1v6h1v5l-2 7h-1v-18h-2l-2-42v-25z" fill="#11260E"/>
<path transform="translate(761,35)" d="m0 0 65 1 1 1v5h-37l-29-1z" fill="#65604B"/>
<path transform="translate(447,32)" d="m0 0 3 4-2 9-4 1-1 2-18-1-36-1-2-2v-3l55-1 3-7z" fill="#121509"/>
<path transform="translate(1448,147)" d="m0 0 7 1 8 5v3h2l1 6-12 12-5-2-4-10 1-11z" fill="#0B3913"/>
<path transform="translate(750,91)" d="m0 0 1 2h10l-3 2-5 2-1 7-2 60-12-1-1-2-2 6h-1v-6l6-14 1-4 3-1 2 1 2-1 1-42h1z" fill="#314024"/>
<path transform="translate(116,125)" d="m0 0 4 4-1 2-3-2v36h-27l-5-1v10l-3 5h-2l-1-8-6-1-1-1v-5l7 1v-5h32l4 2v-17l1-18z" fill="#3F462D"/>
<path transform="translate(534,100)" d="m0 0h1l-1 34-1 23-2 3v-3l-4-1h3l-3-4v-10l-1-4-1-12 1-4h-2l2-5z" fill="#333422"/>
<path transform="translate(500,69)" d="m0 0h6l1 3v3l2-1 2 6h2l-1 5-13 26h-1v-15l1-23z" fill="#10220D"/>
<path transform="translate(969,77)" d="m0 0h40v11l-20-2-5-2-8-1-4 2h-3z" fill="#060602"/>
<path transform="translate(772,123)" d="m0 0 5 5 6 9 3 6v2l3 1 1 5h2v3h2l4 7v2h2l3 7v7h-5l-1-10-11-2 2-17h-2v-2h-9l-7-1v-2l12-1-9-9v-6z" fill="#444831"/>
<path transform="translate(1314,168)" d="m0 0 18 1 5 2 1 4-1 3-5 1v-2l-4 4-9 3-6-2-2-4h-2l-1-8z" fill="#031603"/>
<path transform="translate(1089,9)" d="m0 0 6 1 7 2h16l9 2-2 3-17 3h-12l-17-3-6-1-1-3 7-1 8 1z" fill="#061C06"/>
<path transform="translate(398,142)" d="m0 0h19v1h-18l2 16v2l2 1 35 1-1 4-1-3h-33v2h-4v7h-1l-1-7 1-1-2-1v-2l-21 2h-11l-1-5 1-1 19-1h15v-3l-15-2v-1h15z" fill="#3B5A33"/>
<path transform="translate(117,163)" d="m0 0 6 2 9 1 2 1v4l-4 1-5-1v3l-4 3-11 1-8-2-2-1v-2l-5 1-1 1h-5l-1-3-3-2 1-4v3l30 1 2-2v-2h-26v-1l24-1z" fill="#1E2512"/>
<path transform="translate(944,41)" d="m0 0h58v5l-46 1-2 2-4 1-5-3z" fill="#050502"/>
<path transform="translate(1347,73)" d="m0 0h1l2 34 1 9 1 28v24l4-3h2v2l4-1h9l1-2 1-14h1l1 13h14l4 2-1 1h-19l-1 4h-5v-2l-3 1h-13v-5l-2-1-1-2v-29l-1-26h-1z" fill="#415E3A"/>
<path transform="translate(675,83)" d="m0 0 1 2h33v1l-11 1 2 8-2 2-1 4h-2l-1 3-1-3-4-2-9-3-1-2-3-1-1-2z" fill="#0F2A0D"/>
<path transform="translate(1009,103)" d="m0 0h1v60h19v5h-19l-16-1-4-1h-7v-4h15l-1-6 5-1 2 6v1l5 1z" fill="#39442A"/>
<path transform="translate(1275,55)" d="m0 0h18l32 1 1 1v5l-2-1-22-1-1-1h-30l-3 12-1 2 7-1h31l2-2 3 1-1 7-1 21h-1v-24h-14l-26-1v2l-2-1 4-17 2-2z" fill="#B8B19B"/>
<path transform="translate(753,193)" d="m0 0 4 1v2l3-1 5 1h8l5-1v2l5 1 3 1 1 4-47 1 9-9z" fill="#3B683F"/>
<path transform="translate(1354,125)" d="m0 0 2 3 2-1v5h3v31l-2 3-6 1-1-39z" fill="#CAC0AD"/>
<path transform="translate(1243,169)" d="m0 0h7l-2 4h-2v3l-2 1-63 1-14-1v-1l27-1 9-1 10-2 1-1 18-1 5 2 2 1 3-1z" fill="#060F03"/>
<path transform="translate(260,112)" d="m0 0h2v13h-2v13l-1 5h-2v-3h-2l1 9-3-2-1 2h-2l-2 7-2-1v-4h-3l-2 5h-1l1-7 6-8 3-7 4-9h2l1-4 3-1z" fill="#080904"/>
<path transform="translate(216,206)" d="m0 0h199v1h-103v3h-30l1-2-67-1z" fill="#0B220A"/>
<path transform="translate(0,202)" d="m0 0h41l51 1 23 1 3 2h-58l-47-1-13-1z" fill="#456540"/>
<path transform="translate(175,207)" d="m0 0h108l1 2-2 1h-66v-2l-25 1h-43v-1z" fill="#041003"/>
<path transform="translate(201,147)" d="m0 0h1v5l-6 2v3l1 3h2l-1 12-2 3-4-2-2-2v-3l-6 5 2 1v2l-8-1 1-5 5-3 6-1v-5h-6l-1-7 5-2 4 2 3-6 5 1z" fill="#2A3C1F"/>
<path transform="translate(555,138)" d="m0 0 2 1 1 4v9l-1 3h9v2l4 1-1 1h-8l-4 2v13h-15l-7-2-1-6h20v-27z" fill="#061404"/>
<path transform="translate(786,148)" d="m0 0h2v10l-1 3-1 12-2-3-1 1-1 5h-31v-6l16-1 14 1v-7z" fill="#080803"/>
<path transform="translate(1450,111)" d="m0 0h44v22h-1l-1-16h-43z" fill="#343523"/>
<path transform="translate(1123,203)" d="m0 0h19l13 1 45 1 3 1 6 1-2 2h-87v-1l35-1-21-1-11-2z" fill="#326035"/>
<path transform="translate(676,77)" d="m0 0h24l11 1v8l-35-1z" fill="#040501"/>
<path transform="translate(883,185)" d="m0 0h19l3 3-1 1 4 4-8 2-1-1-10 1-8-1-11-3v-2h-6v-1l17-2z" fill="#395B33"/>
<path transform="translate(1107,25)" d="m0 0h2v3l6 2h17l1 4-4 2-12-1h-4l-1 5-2 6h-3l-5-9-6-6 9-3z" fill="#22451E"/>
<path transform="translate(658,181)" d="m0 0h9l3 3-3 4 1 1h6l1 1v11l-2-3-9-1 2-1-5-4h-3v2l-3 1-3-3h-3l-1-4 2-3h2v-2z" fill="#2C5125"/>
<path transform="translate(358,133)" d="m0 0h1v27l1 5-7 1-12-1 1 3-1 6 4 1v2h-6l-1-6-2-1 1-1-3-4-1-2-6-2-2-4-14-2v-1h23l1-3 1 3-2 7 19 1 3 1z" fill="#3B452B"/>
<path transform="translate(558,67)" d="m0 0 4 1 1 2v8l-3 8v8l1 4v10l-2 14-2 5h-1l-1-9v-21l2-29z" fill="#0D1C0A"/>
<path transform="translate(1434,70)" d="m0 0 3 1v15l2 5 3 3v3h2v2l-4 3-2 12-1-2-3 1-1-1-1-20v-19z" fill="#041704"/>
<path transform="translate(797,60)" d="m0 0h28l3 1v6l-4 3-13-2-2-1h-10l-6-2v-3z" fill="#B8B09A"/>
<path transform="translate(1327,89)" d="m0 0h1l1 28-3 7-3-3-1 4-4-1v-7l-1-4 2-9v-3l3-8 2 1v5h2z" fill="#B8B49D"/>
<path transform="translate(771,109)" d="m0 0h2l8 15 2 3-1 5h-3l-6-8 1 9 8 7v2l-3 1h-9v-31z" fill="#0B0C06"/>
<path transform="translate(1270,81)" d="m0 0h34l1 6-4 2h-20l-10-2-2-4z" fill="#020A01"/>
<path transform="translate(1373,166)" d="m0 0 4 1-1 4-9 9-10 1-4-1v-2h-4l1-5 3-3 5-2h9v2l5-1z" fill="#041503"/>
<path transform="translate(771,48)" d="m0 0h45l5 1-1 3-11 1v2l-2 1h-25l-21-1v-3h43v-2l-33-1z" fill="#131509"/>
<path transform="translate(0,206)" d="m0 0h59l1 4h-60z" fill="#051003"/>
<path transform="translate(1409,85)" d="m0 0h1l1 5h1l2 54v23l10-2 12-2-1-2v-6h1l2 9-4 4h-9l-7 2h-5l-1-22h-1l-2-46z" fill="#415C39"/>
<path transform="translate(885,168)" d="m0 0h42l1 1v5l-1 1h-22v-2l-13-1-7-2z" fill="#050502"/>
<path transform="translate(1e3 20)" d="m0 0 3 3 17 1 2 1h4l1 5h-21v15l-1-2-5-1z" fill="#031503"/>
<path transform="translate(1456,124)" d="m0 0h31l6 5 1 4v7l-1-4-7-2-1-2-8-2-17-1-9-1-3-3z" fill="#031403"/>
<path transform="translate(439,165)" d="m0 0 2 1v7l-2 2-4 1h-12l-4-1h-8l2-2-6-3v-2l32-1z" fill="#060F03"/>
<path transform="translate(180,200)" d="m0 0h57l10 3v1l-37 1h-3l-1-2h-27l-8-1v-1z" fill="#3A5B33"/>
<path transform="translate(158,55)" d="m0 0h16l4 5-1 13-1 10h-1v-23l-2 2-1-4h-4v5l-5 1-2-1-2 5v6l-3 1 2 12v5l-5-3 1-13 3-20z" fill="#B8B59D"/>
<path transform="translate(1478,165)" d="m0 0 2 3 1-3h36l1 4-1 2h-39z" fill="#1B2711"/>
<path transform="translate(797,107)" d="m0 0 10 1 3-1v27l-4-5-12-18v-3z" fill="#323221"/>
<path transform="translate(830,68)" d="m0 0 5 1 2 2h-2l1 6-1-2h-2l3 8-2 8v13l-2 21-1 24h-1z" fill="#061C06"/>
<path transform="translate(1371,73)" d="m0 0h40v12h-1v-8l-8 1-31-1 1 13v32h-1l-1-24v-23z" fill="#585641"/>
<path transform="translate(908,59)" d="m0 0h1v72l-1 14h-38l1-2h33l-1-3h2v-4h2l-1-7v-10l-1-2h2v-7l-4-1v-2l4 1-1-3v-35l1-1z" fill="#2C3621"/>
<path transform="translate(200,52)" d="m0 0h29l4 2 1 3v20h-2v-19l-1-2-3-1h-20l-7 1-5 8-1 7 13-1 2 3v11h-1v-10l-11 2-5-1-1-2v-10l7-8z" fill="#39502F"/>
<path transform="translate(615,117)" d="m0 0h2v7l-6 6h-2v2h-2l-2 4-2 2-1 5 3-3h4v3l4 1h-19l1-6 2-3h2l2-5 4-5 5-3z" fill="#11120A"/>
<path transform="translate(22,14)" d="m0 0h6l-1 5-3 3-6-1-8 3-3 3-7-1v-11h13z" fill="#061C06"/>
<path transform="translate(1480,171)" d="m0 0 34 1-2 6-2 1h-17l-12-3-2-4z" fill="#020701"/>
<path transform="translate(553,148)" d="m0 0h1v17h-22l-8-1-1 1h-8l-5 1-5-2 1-5 1-1 24-1 2 6 20 1z" fill="#424730"/>
<path transform="translate(1051,169)" d="m0 0h32l-2 6-2 1h-28v-3h-2v-2h2z" fill="#050502"/>
<path transform="translate(1347,56)" d="m0 0h32v1h-31v2l5 1 1 1h26l9 4h8l2 2h-16l-11-3-3-1-9 3-5-1-3-2v-2l-3 2 1 16-1 15h-1l-1-21z" fill="#B8B59D"/>
<path transform="translate(700,107)" d="m0 0h11v26l-1 6h-1v-6l-4-2-2-6v-4l-2-5z" fill="#2A3C1E"/>
<path transform="translate(386,85)" d="m0 0h2l2 5h3l4 12v4h-14l-2-1-1-8 3-5 3 1z" fill="#22441E"/>
<path transform="translate(1349,206)" d="m0 0 25 1 1 2-36 1-68-1v-2z" fill="#39673D"/>
<path transform="translate(391,78)" d="m0 0h30v8l-27-1-3-1z" fill="#090904"/>
<path transform="translate(1418,169)" d="m0 0h11l2 2h5l1 4-3 4-7 2h-11l-2-2 1-7z" fill="#041804"/>
<path transform="translate(943,31)" d="m0 0 1 3h12l9 1 3-1h30v2l-4 1h-27l-2 2v1h-22z" fill="#66624C"/>
<path transform="translate(949,16)" d="m0 0h14l23 1 1 2-13 4-9 1-5 1-10-4z" fill="#B8B69E"/>
<path transform="translate(1414,78)" d="m0 0h1v7h-2l1 14h2v8h-2v13l1 23v20l17-1 3-2 1 3-4 2-18 2-3-74h-1v-8l1-4h2z" fill="#B8B59D"/>
<path transform="translate(1453,177)" d="m0 0h6l3 3 8 3-4 2h-2v2l-6 1-6-1-5-1v-2l-8 2-2-1v3h-14v-1l7-1 6-3 9-2 7-3z" fill="#0B3913"/>
<path transform="translate(308,77)" d="m0 0h33v8l-2-1-31-1z" fill="#060702"/>
<path transform="translate(443,22)" d="m0 0h1v17h-17l-25-1-17-2-1-2h25l32 1 1 2z" fill="#67604C"/>
<path transform="translate(116,129)" d="m0 0 5 2 4 5-3 15 1 7-5 2-1 2-1-1z" fill="#0A0A05"/>
<path transform="translate(303,67)" d="m0 0 2 4 37 1v13h-1v-8h-31l-6-2-1-1z" fill="#3E492F"/>
<path transform="translate(1050,139)" d="m0 0h1v24l33 1-1 4-35 1-2-3v-4h2z" fill="#474C34"/>
<path transform="translate(282,137)" d="m0 0h1l1 15 1 1v8l-2 1v4l-21-1 1 9h2v2l-6-1-1-16 2 1 15 1 4 1 2-12z" fill="#41482F"/>
<path transform="translate(732,164)" d="m0 0 2 4v8l-4 2-1 3-3-2-1-3-14-1 1-7h20z" fill="#070803"/>
<path transform="translate(1091,142)" d="m0 0 8 5 11 16 22 1-1 7-1-2-21-1-8-9-9-14z" fill="#665F4B"/>
<path transform="translate(381,30)" d="m0 0h3l1 5 17 2 41 2-1 2h-55l-4-3v-6h-2z" fill="#3B3E28"/>
<path transform="translate(1031,44)" d="m0 0h4v25l-1 15-3 8h-1l-1-42h2z" fill="#031603"/>
<path transform="translate(751,73)" d="m0 0h59v1l-29 1 1 3-6 1h-20l-5-1z" fill="#B8B59D"/>
<path transform="translate(1272,76)" d="m0 0h34v19l-1-3-4-1 1-3 3-3-2-1 1-3-18 1-11-2v-3z" fill="#1B1F0E"/>
<path transform="translate(904,120)" d="m0 0h3v16h-2l-1 7-3 1h-30v-7l5-4 2 7 3-1h4l2 2 3-1 6 1 4-3 1 2 2-4v-2h2v-2l-2-1v-4l2-2 1-4z" fill="#031302"/>
<path transform="translate(1429,62)" d="m0 0h1l1 10v14h-1l-1-6-3 11v7l-2-2-1 10v7l-2 2-2 11h-1v-30l2-4 2 3 4-17 2-7z" fill="#B8B29B"/>
<path transform="translate(1095,74)" d="m0 0h15l1 3v10h-1v-9l-39 1-21 1v-3z" fill="#645F4B"/>
<path transform="translate(950,168)" d="m0 0h21l6 3 1 5-7 1-8-1-12-2-1-1z" fill="#051103"/>
<path transform="translate(829,108)" d="m0 0h1v62h-21l-7-8-3-3h2l1-2 4 7 23 1z" fill="#4F4F39"/>
<path transform="translate(0,156)" d="m0 0 8 1 26 1h41v2l3-1v3l-4 1-38-2h-26l-10-1z" fill="#21441D"/>
<path transform="translate(312,207)" d="m0 0h63v3h-63z" fill="#020801"/>
<path transform="translate(829,183)" d="m0 0 1 2 7-1h9l13 1h24l-2 2-17 2-7 1h-10l-5-1-10-1-8-2 1-2z" fill="#2C5225"/>
<path transform="translate(1475,74)" d="m0 0 36 1-1 4-2 1h-30l-3-1z" fill="#16250E"/>
<path transform="translate(272,73)" d="m0 0 9 2 4 4 1 5v21l-1 1-3 44-2 3v-13l2-41 1-18-6-5-5-2z" fill="#B8B29B"/>
<path transform="translate(462,23)" d="m0 0h4v2h2v2l4 1 2 6-3 1v3l-4-1-1 8h-2v-5h-3l1-6h-2l-1 2-1-1v-7l2-3h2z" fill="#21441D"/>
<path transform="translate(1367,134)" d="m0 0 3 1 1 9-1 6 2 4h1v10l-3 1-2-5-2 4-2-3-2 3v-8l2-6-1-3 2-2 1-2z" fill="#C9C0AC"/>
<path transform="translate(0,136)" d="m0 0 11 1 7 4 7 2-4 2-11 2h-8l1 2-1 2h-2z" fill="#21441D"/>
<path transform="translate(674,82)" d="m0 0h1v23h15v2h-19l-2-4-2-1 2-7h-2l1-2 1-1-4-1h2l-1-3 2-2h4z" fill="#274A22"/>
<path transform="translate(1188,165)" d="m0 0h62v3h-49l-14-1z" fill="#4C4935"/>
<path transform="translate(657,96)" d="m0 0h1l1 29-1 8-1 5-1 2v7l1 6h-2l-1 4v-49z" fill="#0D1E0A"/>
<path transform="translate(503,65)" d="m0 0h17l1 3-7 13-5-1-1-5-2 1-1-6 1-2h-4z" fill="#112D0F"/>
<path transform="translate(644,202)" d="m0 0 7 1h10l3 1h3 7v2l2 1h-36l-14-1h-8l1-3h21z" fill="#3C6940"/>
<path transform="translate(243,161)" d="m0 0h2l-2 5-1 2h2l1 8-3 3h-14v-4l-19-2v-7h5l-4 1v5h22l5 1z" fill="#1B2310"/>
<path transform="translate(709,148)" d="m0 0h1v15h19v-9l2 2v12h-19v3l-11-3v-2l4-1 4 1z" fill="#4C4E38"/>
<path transform="translate(762,37)" d="m0 0 49 2 15 2v1h-36l-29-1z" fill="#B8B59D"/>
<path transform="translate(1184,85)" d="m0 0h1l2 45v15h40v2h-40l-1-1-1-12-2-5z" fill="#B8B39C"/>
<path transform="translate(849,143)" d="m0 0h1v22l-6 2-4 5-5 1 2-7-6-2 1-4 6-1h11z" fill="#2D4022"/>
<path transform="translate(1071,107)" d="m0 0 3 3 3 5-1 2-3-3-1 28h10v-3l-8-1v-8l4 2 6 8v2l4 1v2l-3 1h-14z" fill="#55553F"/>
<path transform="translate(979,88)" d="m0 0h29v3l-25 1h-14l1 24 2 1-3 6h-1v-34z" fill="#3A3B27"/>
<path transform="translate(260,109)" d="m0 0h2l1 2v13h-1v-12l-1 1v7l-2 2-2-1-1 4-2 1-4 10-3 6-6 9-2 7-3 7-2-4 2-5 8-16 6-9 3-9z" fill="#3A3D28"/>
<path transform="translate(660,191)" d="m0 0 6 3 1 2h4v2l3-1 2 9-9-1h-3l-6-1 1-3h-2l-1-7h2v-2z" fill="#315F34"/>
<path transform="translate(751,176)" d="m0 0h26l1 4 3 3h-16l-8-1-2-2-4-1z" fill="#484E36"/>
<path transform="translate(810,73)" d="m0 0h1v6h-35v-1l5-1v-2h-5v-1z" fill="#655E4A"/>
<path transform="translate(750,91)" d="m0 0 1 2h10l-3 2-5 2-1 7-2 60-9-1v-4h8v-59h1z" fill="#454E34"/>
<path transform="translate(208,84)" d="m0 0h1l-1 27-3 25-2 17-2 2 1-18 1-3v-25h-10l-2-2h15v-16l-1-4h3z" fill="#4F533B"/>
<path transform="translate(495,26)" d="m0 0 4 1 1 6h8l2 4-4 4-9 1-4-5-2-8z" fill="#22451E"/>
<path transform="translate(92,73)" d="m0 0h11v8l-3 10-4 2-3-5-3-3 2-5 5-3z" fill="#12290F"/>
<path transform="translate(1474,163)" d="m0 0 5 1-4 1-1 4 5 6v2l11 2h24l-1 2-7 2h-15l-10-2-7-3-2-2-2-6 3-6z" fill="#041704"/>
<path transform="translate(231,77)" d="m0 0h1v27l3 1-2 1 2 7v5l-7 10h-1v-9l3-23z" fill="#0C1708"/>
<path transform="translate(95,54)" d="m0 0h28l3 2 1 9-2 26-2 5-3-3v-7l4-1-1-15-1-7h3l-1-5-1-1h-7-3l-1-1h-18z" fill="#B8B39C"/>
<path transform="translate(609,80)" d="m0 0h8l2 7-3 1h-19v-7z" fill="#040501"/>
<path transform="translate(762,49)" d="m0 0h46l-4 1v2l-10 1h-25l-7-1z" fill="#262817"/>
<path transform="translate(954,185)" d="m0 0h5l4 6 8 1 1 3 2 1 1 2-1 2h3v2l-8-1-2-2v-3l-7 1-2-1v-2l-5-2-1-4z" fill="#395B33"/>
<path transform="translate(1168,167)" d="m0 0h33l48 1v1l-58 1-2 1h-13l-8-2-1 3z" fill="#181E0D"/>
<path transform="translate(748,131)" d="m0 0h1v11l-4 2-4-1-1 6-5 12-1 6h2v5h-2l-2-4h-1l1-9 3-4 5-20h2l1-2h4z" fill="#2B3C1F"/>
<path transform="translate(1133,74)" d="m0 0 3 1 1 7-1 17-1 7h-2v2h-2v-33z" fill="#031503"/>
<path transform="translate(996,92)" d="m0 0h13v55h-1l-1-18h-1l-1-18 1-17h-4l-1 3v-2l-4-1z" fill="#161C0C"/>
<path transform="translate(1048,70)" d="m0 0 3 1-1 9 21-2h34v1l-29 2v1l-7 1h-19l-2-6z" fill="#394229"/>
<path transform="translate(286,84)" d="m0 0h1v21l11-1v-2l3-3 2-6 3-1 1-2 1 7v6l2 1 13 1v1h-38z" fill="#2A4924"/>
<path transform="translate(1371,70)" d="m0 0 30 2v1h-30v49l-2 3h-2l-1-5v-7l1-4 2-4v-33z" fill="#B8B49D"/>
<path transform="translate(1163,75)" d="m0 0h2l-1 31h-1v-19h-14v-8h14z" fill="#061404"/>
<path transform="translate(948,57)" d="m0 0h1v108h11l12 1v1l-24 1z" fill="#485839"/>
<path transform="translate(403,164)" d="m0 0h33l1 3-24 2-6-1 1 2 9 3v1h-9l-2-2-1-7z" fill="#1B1E0E"/>
<path transform="translate(657,63)" d="m0 0h2l4 9v11l-1 3h-2l-2 9-2-1v-14z" fill="#050F03"/>
<path transform="translate(85,165)" d="m0 0 33 1 1 3-3 2-26-1-4-1z" fill="#050602"/>
<path transform="translate(58,203)" d="m0 0h34l23 1 3 2h-58z" fill="#3B5C34"/>
<path transform="translate(419,92)" d="m0 0h1l-1 26h-1v-6h-36v-3h33 1l-2-2 3-1z" fill="#24431E"/>
<path transform="translate(703,87)" d="m0 0h7l1 20h-12v-2l2-1v-2l4-4-3-10z" fill="#364228"/>
<path transform="translate(571,203)" d="m0 0 16 2v1l-29 1h-46l-4-1h-4v-2h65l2 1z" fill="#3C6940"/>
<path transform="translate(998,34)" d="m0 0h4v6h-37l-8-1v-1l13-2h28z" fill="#B8B69E"/>
<path transform="translate(1326,19)" d="m0 0 4 1v24l-3 1-3-7-3-5 2-4h2v-8z" fill="#22451E"/>
<path transform="translate(1185,57)" d="m0 0h1l1 13v60h-1l-2-45v-25z" fill="#455839"/>
<path transform="translate(964,10)" d="m0 0 1 2h14l24 3v1h-48l-2-2 7-2h3z" fill="#061C06"/>
<path transform="translate(876,15)" d="m0 0h31l3 1v2h-67l2-2z" fill="#061C06"/>
<path transform="translate(678,195)" d="m0 0 4 1v2l10 1 3-1 2 1 1-2 1 5-5 3 3 1h-11l-5-1-1-2-4 1 1-4-1-1z" fill="#326035"/>
<path transform="translate(871,79)" d="m0 0 17 2v8l-17-1z" fill="#0A0B05"/>
<path transform="translate(503,205)" d="m0 0h8l5 1h51l1 2h-69v-2z" fill="#507853"/>
<path transform="translate(807,170)" d="m0 0h22v6h-22z" fill="#14150A"/>
<path transform="translate(95,114)" d="m0 0 4 1v4h-2v16l-2 4-4-10-1-10z" fill="#595641"/>
<path transform="translate(1373,150)" d="m0 0h1l1 13h14l4 2-1 1h-19l-1 4h-5v-2l-3 1h-13v-5l-2-1-1-2v-7l4 3v11l4-3h2v2l4-1h9l1-2z" fill="#2B4824"/>
<path transform="translate(849,171)" d="m0 0h2v2h11l8 1h35l8 1v1h-63z" fill="#1C2110"/>
<path transform="translate(335,151)" d="m0 0 1 3-2 7 19 1v1l-15 1-1 5-3-4-1-2-6-2-2-4-14-2v-1h23z" fill="#405B36"/>
<path transform="translate(607,132)" d="m0 0 8 1-2 1-1 5h2l1 3-1 2h19v-11h1v12h-31v-1l6-1v-3h-4l-1 3h-2v-5z" fill="#2C341F"/>
<path transform="translate(1371,77)" d="m0 0h39v8h-1v-5h-30l-7-1 1 7v10h-1l-1-6z" fill="#232515"/>
<path transform="translate(1465,61)" d="m0 0h41l5 1-3 5-7-2h-12l-12-1h-12z" fill="#B8B69E"/>
<path transform="translate(618,64)" d="m0 0h10l4 2v5h-2l-1 3-9 1-2-3z" fill="#22451E"/>
<path transform="translate(1268,54)" d="m0 0h28l30 1 1 1v16h-1l-1-15-32-1h-18l-5 2-4 17h-1v-9l1-9z" fill="#4E6947"/>
<path transform="translate(532,165)" d="m0 0h22v1l-19 1v10h2v2l-3-1-2 2-7 1-1-1v-5l2-2h3l-1-4 2-1 2 1z" fill="#314024"/>
<path transform="translate(148,165)" d="m0 0h17v2l4 1 1 4-6 1-12-2-5-5z" fill="#091606"/>
<path transform="translate(157,51)" d="m0 0h6l3 1 10 1 3 6v8l-2 14h-1l1-21-3-4h-16l-3 20h-1v-10l1-11z" fill="#4F6243"/>
<path transform="translate(1120,169)" d="m0 0h6v2l5 1v4l-8 1h-13l-2-1v-3l6-1 2-2z" fill="#030B02"/>
<path transform="translate(1097,86)" d="m0 0h6l-3 3-8 2h-3l5 4 1 5-1 2-5-1-8-14z" fill="#212915"/>
<path transform="translate(388,42)" d="m0 0h31l12 1 2 2-6 1h-24l-13-1v-2z" fill="#050602"/>
<path transform="translate(1187,67)" d="m0 0 3 1 1 2v16l-2 18-1 6h-1z" fill="#051003"/>
<path transform="translate(1379,88)" d="m0 0h26l3 7 1 3-2 3-4-4v-7h-11l-15 3-1 14h-1v-14l1-3z" fill="#061C06"/>
<path transform="translate(114,145)" d="m0 0h1v18l-1 1h-12l-23-1v-3h31l4 2z" fill="#68614D"/>
<path transform="translate(770,112)" d="m0 0h1l1 12 2 4v5l8 7v2l-3 1h-9z" fill="#1F2013"/>
<path transform="translate(250,128)" d="m0 0 1 3-10 16-4 9-2 5v2l-32-1-2-1 1-2 7 1h20l3 1 2-6 12-21z" fill="#67604C"/>
<path transform="translate(114,130)" d="m0 0h1v15l-1 17-4-1h-31l-2-2 1-3v2h34l1-14z" fill="#B8B39C"/>
<path transform="translate(251,132)" d="m0 0 1 4-2 11 1 1 1-5 3-3 1 9-3-2-1 2h-2l-2 7-2-1v-4h-3l-2 5h-1l1-7 6-8 3-7z" fill="#191A0D"/>
<path transform="translate(126,78)" d="m0 0 4 4 1 8-4 14-3-1-2-7 3-9z" fill="#0B1F09"/>
<path transform="translate(144,200)" d="m0 0h9l1 2h-2l1 2h2l1-2v2h8l2 3h-29l1-3 6-1-2-2z" fill="#395A32"/>
<path transform="translate(786,165)" d="m0 0 8 1 1 2h-2l-5 5-1 10-1-3-6 2-3-2v-4h5v-8h2l1 2z" fill="#323A23"/>
<path transform="translate(699,198)" d="m0 0 5 1 2 5 1 2-3 1h-27v-4h4l6 2h7l1-2 3-2z" fill="#39673D"/>
<path transform="translate(205,130)" d="m0 0h1l-1 28 9-1 5 1 5-2 3 1v2h5v2h-27l-4-2 2-16z" fill="#B8B29B"/>
<path transform="translate(387,71)" d="m0 0 2 1 26 1 1 4h-26l-1 2z" fill="#454932"/>
<path transform="translate(534,166)" d="m0 0 16 1 3 1-1 6h-10l-7-2z" fill="#020901"/>
<path transform="translate(1093,155)" d="m0 0 4 4 6 9v3h-8l-4-4-1-5z" fill="#3E3D29"/>
<path transform="translate(1011,169)" d="m0 0h18l-1 7-17-1z" fill="#050F03"/>
<path transform="translate(1534,12)" d="m0 0 4 1 2 1v2l7 1v3l-2 1-2 4v-3l-17-3 1-3z" fill="#061C06"/>
<path transform="translate(92,165)" d="m0 0h29l1 5-4 4h-8l-7-2-17-1-1-5 1 3 30 1 2-2v-2h-26z" fill="#18190C"/>
<path transform="translate(1477,146)" d="m0 0 14 1v1l-10 1-2-1v2h-2l2 5 3 3v6h35v1h-36l-1 5h-1v-6l1-4-5-5-1-3z" fill="#B9B59D"/>
<path transform="translate(928,123)" d="m0 0 1 4 3 1v24l-2 4-2-1z" fill="#061805"/>
<path transform="translate(263,166)" d="m0 0 19 1 1 5-5 2h-8l-3-1-4-5z" fill="#030701"/>
<path transform="translate(750,164)" d="m0 0h13l18 1v5h-14v-3h-12l-5-1z" fill="#4E533A"/>
<path transform="translate(1319,170)" d="m0 0h5v2h3l2 4-6 4-12-2v-2h2v-3h3v-2z" fill="#050E02"/>
<path transform="translate(139,155)" d="m0 0 3 2 1 3 4 3h-4l2 6-6-2-7-3-8-2 2-3 6 1h7z" fill="#474C34"/>
<path transform="translate(1435,120)" d="m0 0 5 2v22l-3 12h-1l-1-22zm2 7-1 1v6l2-1v-6z" fill="#051A05"/>
<path transform="translate(1150,64)" d="m0 0h1v7l-1 3h16l-1 3v-2h-2v3h-15l-2-3v-8l1-2z" fill="#284A23"/>
<path transform="translate(1448,125)" d="m0 0h9l15 1 12 2 6 4v2l4-1v7l-1-4-7-2-1-2-8-2-17-1-9-1z" fill="#051B05"/>
<path transform="translate(231,57)" d="m0 0 2 1-2 38-2 14h-1v-10l-3-5 2-5 2-4v-9z" fill="#B8B19B"/>
<path transform="translate(821,49)" d="m0 0h7l4 7h-25l2-1v-2l11-2z" fill="#050E02"/>
<path transform="translate(672,71)" d="m0 0h3v3h37v3h-38l-3-2z" fill="#303E24"/>
<path transform="translate(1515,64)" d="m0 0h2l1 6-2 6-1 2h-2v12h-5v-7l4-1-1-2-3-1 2-1 1-3h2v-10z" fill="#051B05"/>
<path transform="translate(782,7)" d="m0 0h2l2 4 3 2 13 3 11 1v1h-31z" fill="#081C06"/>
<path transform="translate(71,164)" d="m0 0h8l1 4 1-4h3v10l-3 5h-2l-1-8-6-1-1-1z" fill="#2B3C1F"/>
<path transform="translate(504,69)" d="m0 0 2 1 1 5 2-1 2 6h2l-1 5-3 4-4-2-3-8z" fill="#1D2010"/>
<path transform="translate(484,196)" d="m0 0h4v2l5 1v2l3 2h-50v-1h33v-2h3v-2h2z" fill="#3A5B33"/>
<path transform="translate(791,158)" d="m0 0h2l2 3h3v2h2l3 7v7h-5l-1-10-7-2z" fill="#3A5A33"/>
<path transform="translate(1413,144)" d="m0 0h1v23l10-2 12-2-1-2v-6h1l2 9-4 4h-9l-7 2h-5z" fill="#4B5B3C"/>
<path transform="translate(1429,77)" d="m0 0h1l1 11-1 2h-2l1 3h-2l1 3-2 10-3 6-1-3v-9l3-9 3-11z" fill="#CBC1AE"/>
<path transform="translate(1479,91)" d="m0 0h34v3l-6 3-3-1v-2h-28l-3-2z" fill="#B8B59D"/>
<path transform="translate(1434,93)" d="m0 0 6 3-2 18-1-2-3 1-1-1v-14z" fill="#031703"/>
<path transform="translate(94,51)" d="m0 0h27l6 3v5l-4-4h-28l-2 1z" fill="#485538"/>
<path transform="translate(997,47)" d="m0 0h4v7l8 1v1h-19l-9-2 3-2 10-2 3-2z" fill="#202212"/>
<path transform="translate(464,78)" d="m0 0h14v9l-1-2h-13z" fill="#030601"/>
<path transform="translate(1331,112)" d="m0 0 3 1 1 5-1 6v6l-1 1v6h1v5l-2 7h-1l-1-18v-18z" fill="#051B05"/>
<path transform="translate(752,86)" d="m0 0h13l2 1v2l2 1-6 3h-11z" fill="#1B1F0F"/>
<path transform="translate(1276,177)" d="m0 0h20l4 2v3l4 2 1 3h-5l-1-3-3-1-7-1-6-3-7-1z" fill="#0B3913"/>
<path transform="translate(1010,163)" d="m0 0h19v5h-19l-1-4z" fill="#69624E"/>
<path transform="translate(786,148)" d="m0 0h2v10l-1 3-1 12-2-3-1 1-1 5h-1v-13z" fill="#1D1E10"/>
<path transform="translate(1372,114)" d="m0 0 3 3h3l-1 14-2 4-1 7h-1l-1-5z" fill="#0A1807"/>
<path transform="translate(541,200)" d="m0 0 2 1 13 1 10-1 1 2-2 2h-47v-1l12-1 3-1h8z" fill="#335F34"/>
<path transform="translate(597,74)" d="m0 0 19 1v4h-10l-3 2h-6v7h-1v-10z" fill="#343522"/>
<path transform="translate(732,164)" d="m0 0 2 4v8l-4 2-1 3-3-2-1-3h-6v-1h10l-1-6h-16v-1h20z" fill="#17250F"/>
<path transform="translate(1377,87)" d="m0 0h28v1l-26 1-3 1-1 20h-2l-1 3v-17l1-7z" fill="#041002"/>
<path transform="translate(180,63)" d="m0 0 3 3v7h-2l-2 18-2 1-1-11 3-17z" fill="#061D06"/>
<path transform="translate(1515,125)" d="m0 0h2l1 19v20l-2-1-1-8-1-21z" fill="#B8B59D"/>
<path transform="translate(1268,75)" d="m0 0h4v2h3v3l3 1h-8l1 5 8 1v1l-12 1-4-2 1-5 3-1z" fill="#061705"/>
<path transform="translate(658,34)" d="m0 0h6l2 2-1 6-4 1-3-1-2 5-4-2 2-6 2-2-1-2z" fill="#0B3812"/>
<path transform="translate(1362,171)" d="m0 0h9l-2 5-2 1h-13l-3-3 1-2z" fill="#020801"/>
<path transform="translate(1595,154)" d="m0 0 1 2 4 1v5h-13l-2-1v-4l3-2h6z" fill="#0E2C0D"/>
<path transform="translate(988,118)" d="m0 0h13l-1 7-1 1h-8l-4-1z" fill="#090A04"/>
<path transform="translate(462,73)" d="m0 0h13l4 1v12h-1v-8h-16l-1-4z" fill="#55563F"/>
<path transform="translate(979,144)" d="m0 0 1 2 2 1h-2l2 9v7l-3 1-1-2-4-1 2-9z" fill="#222615"/>
<path transform="translate(771,48)" d="m0 0h45l5 1-1 3h-16v-2l-33-1z" fill="#191C0D"/>
<path transform="translate(1475,164)" d="m0 0 3 1v6l2 1 1 3 12 3h17l2-1 2-3v5l-3 1h-21l-8-2-3-1-6-8 1-4z" fill="#050E02"/>
<path transform="translate(589,174)" d="m0 0h29l2 2-4 1-10 1-13-1z" fill="#3F3E29"/>
<path transform="translate(248,65)" d="m0 0 1 2 1 4h11l-2 6-4-2-5 5-3-1-1-12z" fill="#3F462E"/>
<path transform="translate(1050,202)" d="m0 0h23l9 1h23l-2 4-13-1-21-1-3-1-16-1z" fill="#326035"/>
<path transform="translate(261,131)" d="m0 0h1v20l-2 8h15l5 1-1 3-4-1-15-1-2-3z" fill="#B8B29B"/>
<path transform="translate(851,95)" d="m0 0 5 5 10 11-1 4-4-1-3-5-7-8z" fill="#051103"/>
<path transform="translate(1520,57)" d="m0 0 25 1 4 2-6 1h-25z" fill="#22451E"/>
<path transform="translate(968,34)" d="m0 0h30v2l-4 1h-29z" fill="#68614D"/>
<path transform="translate(887,117)" d="m0 0 3 1 1 5h-3l-2 6-4-1 1 4-5-2v2l-3-1 11-13z" fill="#031503"/>
<path transform="translate(870,74)" d="m0 0 17 1v5h-12l-5-1z" fill="#5D5E46"/>
<path transform="translate(86,66)" d="m0 0 1 3-1 3h18l-1 2h-9l5 4-7 2-1 4-3-5-1-6h-2l-1-5h2z" fill="#4B5238"/>
<path transform="translate(1275,55)" d="m0 0h18l32 1 1 1v5l-2-1v-2l-4-1-49-1z" fill="#B8B59D"/>
<path transform="translate(810)" d="m0 0h42v3h-14l-6 1-6-1v-2h-16z" fill="#21441D"/>
<path transform="translate(615,117)" d="m0 0h2v7l-6 6h-6l-1-4 6-4z" fill="#050C03"/>
<path transform="translate(1192,205)" d="m0 0h8l3 1 6 1-2 2h-34v-2l16-1z" fill="#356339"/>
<path transform="translate(772,123)" d="m0 0 5 5 6 9 2 6h-6l3-1-9-9v-6z" fill="#41452F"/>
<path transform="translate(968,74)" d="m0 0 41 1v2l-41 1z" fill="#363C26"/>
<path transform="translate(572,11)" d="m0 0h25l22 1-4 2h-44l-2-2z" fill="#22451E"/>
<path transform="translate(762)" d="m0 0h19l1 7-6-1v-1l-13-1z" fill="#202914"/>
<path transform="translate(375,207)" d="m0 0h28v3h-28z" fill="#060F03"/>
<path transform="translate(950,168)" d="m0 0h17l2 3-5 2h-14z" fill="#020701"/>
<path transform="translate(555,97)" d="m0 0h1l1 8h3l1 3-2 14-2 5h-1l-1-9z" fill="#13210E"/>
<path transform="translate(1475,74)" d="m0 0 33 1-3 2-2 1h-15l-5 1-2-1v-2l-5-1-1 2z" fill="#30301F"/>
<path transform="translate(923,168)" d="m0 0 5 1v5l-1 1h-22v-2h-6v-1h24z" fill="#071104"/>
<path transform="translate(892)" d="m0 0h34l-4 2 3 2h-7l-3-2-1 1h-10-1-7l-4-1z" fill="#20431C"/>
<path transform="translate(1419,170)" d="m0 0 9 1-1 5-4 2h-6l-2-1v-5h4z" fill="#020801"/>
<path transform="translate(1244,72)" d="m0 0h1l2 18v28l-2-2-1-24z" fill="#B8B49C"/>
<path transform="translate(209,173)" d="m0 0h12l7 1 1 2-2 2-12 1-5-3z" fill="#313120"/>
<path transform="translate(385,47)" d="m0 0h5l-2 2 11 2 1 1 7 1v1l-12 1h-11z" fill="#384329"/>
<path transform="translate(172)" d="m0 0h12l9 3-2 3-5 1-4-3v-2h-2v2l-4 1-3-1v-2l-2-1z" fill="#061C06"/>
<path transform="translate(585,99)" d="m0 0 5 4 3 4-1 5-3 3h-2l-3-11z" fill="#0E1B0A"/>
<path transform="translate(1172,53)" d="m0 0h7l3 1v2l3 1h-32v-1l8-2z" fill="#2A5028"/>
<path transform="translate(258,161)" d="m0 0 16 2 2 2h-14l1 9h2v2l-6-1z" fill="#3F452E"/>
<path transform="translate(1301,113)" d="m0 0 2 1 1 3v12h2v13l-3 1-1-6h2l-2-6v-5l-1-1z" fill="#061C06"/>
<path transform="translate(708,109)" d="m0 0 3 2v22h-1l-1-9-4-4v-5l-2-1 4-1z" fill="#3B452B"/>
<path transform="translate(1e3 94)" d="m0 0h4v16h-5l-1-15z" fill="#202714"/>
<path transform="translate(1029,52)" d="m0 0h1l1 37 2-4 1 2-2 12-3 2z" fill="#0D240B"/>
<path transform="translate(167,132)" d="m0 0h1v12l-2 17h-20l-4-2 1-2 7 1 14 1z" fill="#B8B59D"/>
<path transform="translate(1413,60)" d="m0 0h13v5l-3 4-2-1v-2l-6 1-4-4z" fill="#B8B59E"/>
<path transform="translate(985,163)" d="m0 0h18l6 1v3h-15l-9-2z" fill="#414931"/>
<path transform="translate(202,53)" d="m0 0h30l2 4v20h-2v-19l-1-2-3-1h-27z" fill="#4D6243"/>
<path transform="translate(222,200)" d="m0 0h15l5 2v1h-25l-13-1v-1z" fill="#5F6A50"/>
<path transform="translate(1330,131)" d="m0 0h1l1 31 1 3-3 1-1 3h-3v-2h-14v-1h17v-27h-1v-7z" fill="#4F5B3E"/>
<path transform="translate(830,164)" d="m0 0 7 1 1 3-5 9-4-1z" fill="#0E2C0D"/>
<path transform="translate(1e3 20)" d="m0 0 3 3 17 1 2 1h4l1 5-6-1v-2l-18-2v5l-2-2z" fill="#051B05"/>
<path transform="translate(1211,169)" d="m0 0h32l-1 4-4 1-2-2-10-1-15 1z" fill="#020801"/>
<path transform="translate(1478,121)" d="m0 0 11 1 3 1 1 6-6-4-26-1v-1z" fill="#020801"/>
<path transform="translate(711,175)" d="m0 0h8l6 1v2l3 1v2h-7l-1 2-8-5z" fill="#2B3C1F"/>
<path transform="translate(499,91)" d="m0 0h2l1 3-1 2h2l1 6-5 9h-1v-15z" fill="#192011"/>
<path transform="translate(288,61)" d="m0 0h1v16h-3v7h-1l-2-6-4-3-8-3 4-1 11 2 1 1z" fill="#474D35"/>
<path transform="translate(1394,175)" d="m0 0h2v6l11 1v1h-15l-4-1-7-1v-1h5v-3l7-1z" fill="#0B3913"/>
<path transform="translate(403,165)" d="m0 0h2l2 11 1 2-4 1-2-4-3-1v-8z" fill="#394128"/>
<path transform="translate(562,160)" d="m0 0h11v5l2 3h-5v-2l-9-1-2-4z" fill="#3B5933"/>
<path transform="translate(1008,88)" d="m0 0 1 4-10 1-2 2h-13l-2-2 1-2h25z" fill="#222815"/>
<path transform="translate(609,80)" d="m0 0h8l2 7-3 1h-8z" fill="#061303"/>
<path transform="translate(398,142)" d="m0 0h19v1h-18l2 16v3h-2l-1-8-15-2v-1h15z" fill="#4F5C3E"/>
<path transform="translate(1323,112)" d="m0 0 1 3h2v2h2l-2 7-3-3-1 4-4-1v-7-3h2l1 3v-3z" fill="#B8B59E"/>
<path transform="translate(304,71)" d="m0 0 38 1v1l-8 1v2l-5-1v-2l-10 2-11-1-4-1z" fill="#68614D"/>
<path transform="translate(341,165)" d="m0 0h12l1 2h-4l-1 8-6-2z" fill="#1A230F"/>
<path transform="translate(1481,165)" d="m0 0h36v3h-14l-3-1h-19z" fill="#3B3C28"/>
<path transform="translate(467,27)" d="m0 0 5 1 2 6-3 1v3l-6-2-1-8z" fill="#20431C"/>
<path transform="translate(475,127)" d="m0 0h1v13l-1 23 4 1h-6l-2-9 2-6z" fill="#454932"/>
<path transform="translate(969,92)" d="m0 0 5 1v8l-3 5-1 7h-1z" fill="#1B1D0E"/>
<path transform="translate(1435,85)" d="m0 0 2 1 2 5 3 3v3h2v2l-5 3v-5l-4-3-2 4-1-7h2z" fill="#061D06"/>
<path transform="translate(588,53)" d="m0 0h16v1l6 1v1h-33l1-2z" fill="#26431F"/>
<path transform="translate(47)" d="m0 0h27l-1 3h-7l-8-1-7 2-4-2z" fill="#0E2C0D"/>
<path transform="translate(1247,123)" d="m0 0h2l1 28-1 5h-2l-1-14 1-11-1-3z" fill="#B8B39C"/>
<path transform="translate(770,143)" d="m0 0h16v2l3 1 1 5h2l1 5-5-5v-3h-2v-2h-9l-7-1z" fill="#5A5A43"/>
<path transform="translate(1513,91)" d="m0 0h1v13h2l1 21h-2v9h-1v-13l-1-15z" fill="#5B684C"/>
<path transform="translate(968,89)" d="m0 0h5v1l10 1v1h-14l1 24 2 1-3 6h-1z" fill="#41412E"/>
<path transform="translate(662,75)" d="m0 0h1v8l-1 3h-2l-2 9-2-1v-14l4 2 1-6z" fill="#051704"/>
<path transform="translate(447,32)" d="m0 0 3 4-2 9-4 1-1 2-4-2 4-1 1-11z" fill="#061C06"/>
<path transform="translate(147,167)" d="m0 0 5 5 1 2-6 2-8-1-1-3 1-2 8 1z" fill="#2B3C1F"/>
<path transform="translate(166,154)" d="m0 0h1v9h-20l-5-3 2-1 6 1h11l5 1z" fill="#68614D"/>
<path transform="translate(855,94)" d="m0 0 13 13-1 6-5-5-4-5-3-6z" fill="#464B33"/>
<path transform="translate(156,70)" d="m0 0 3 1-1 4h-2l2 12v5l-5-3 1-13z" fill="#B8B29C"/>
<path transform="translate(1595)" d="m0 0h5v15l-4-1z" fill="#C5BDA9"/>
<path transform="translate(1e3)" d="m0 0h23l-1 3h-21z" fill="#2D3E21"/>
<path transform="translate(253,174)" d="m0 0 2 1 1 3-5 1-4 1v2l-8-1 3-1 1-4z" fill="#2A3C1F"/>
<path transform="translate(1375,143)" d="m0 0 2 2 2 6-2 11h-3v-16z" fill="#051604"/>
<path transform="translate(125,137)" d="m0 0 5 5 4 5-1 4-7-3-2-6z" fill="#424A31"/>
<path transform="translate(93,118)" d="m0 0h2l1 2v14l-4-2-1-3v-9h2z" fill="#1C1C10"/>
<path transform="translate(782,89)" d="m0 0 4 1v3h2l3 5v2l3 1-1 6-3-3-8-12z" fill="#303120"/>
<path transform="translate(1418,169)" d="m0 0h11l2 2v6l-2 2h-13l-1-2h8l4-2 1-4-9-1v2l-2-1z" fill="#051103"/>
<path transform="translate(396,163)" d="m0 0h42l-1 4-1-3h-33v2h-4v7h-1l-1-7 1-1z" fill="#434A31"/>
<path transform="translate(849,143)" d="m0 0h1v22l-6 2-5-2v-2l4-2h5z" fill="#4B5139"/>
<path transform="translate(798,160)" d="m0 0 5 2 6 8h-2v6h-3v-6h-2l-2-7h-2z" fill="#191D0E"/>
<path transform="translate(1246,81)" d="m0 0h1l1 7 1 22 1 2v14h-1l-1-6h-1l-1-19z" fill="#48583A"/>
<path transform="translate(200,59)" d="m0 0 1 3 4 1 3 5h-7l-4 1-1-4z" fill="#B8B09A"/>
<path transform="translate(66,158)" d="m0 0h9v2l3-1v3l-4 1-13-1-3-3z" fill="#314425"/>
<path transform="translate(171,108)" d="m0 0h1v19l-1 6h-2v12l-1 5h-1l1-18z" fill="#5B5C44"/>
<path transform="translate(1250,119)" d="m0 0h1l2 11-1 11-3 1v-16z" fill="#041704"/>
<path transform="translate(523,122)" d="m0 0h3l1 3-1 2 1 7-4 1-2-1 1-2h-2l2-9z" fill="#3D3C28"/>
<path transform="translate(1432,106)" d="m0 0h1l1 19-3 1-1 6h-3l3-15z" fill="#ADA791"/>
<path transform="translate(992,113)" d="m0 0h9l1 4-7 2h-5v-4z" fill="#424A31"/>
<path transform="translate(1248,80)" d="m0 0h1l2 16v10l-1 4h-2z" fill="#061B05"/>
<path transform="translate(503,65)" d="m0 0h17l1 3-2 2v-2l-2 1-15-1z" fill="#2A4B24"/>
<path transform="translate(552,21)" d="m0 0h9l-3 6-3 1-1 2-4-1-1-4z" fill="#0E2C0D"/>
<path transform="translate(60,207)" d="m0 0h20l1 3h-21z" fill="#020801"/>
<path transform="translate(260,109)" d="m0 0h2l1 2v13h-1v-12l-1 1v7l-2 2-2-1-2 4 1-9z" fill="#29291A"/>
<path transform="translate(208,68)" d="m0 0 4 4 3-2h5l-1 5-7 3-2 2z" fill="#B8B09A"/>
<path transform="translate(1350,173)" d="m0 0 2 1v2h17l-3 4-9 1-4-1v-2h-4z" fill="#051303"/>
<path transform="translate(200,155)" d="m0 0h1v6l18 1v1l-10 1v2l-6 1-1-3h-2z" fill="#445034"/>
<path transform="translate(1327,102)" d="m0 0h1l1 15h-3v-2h-2-1l-3 3-1-5 2-2 4-1 1-7z" fill="#B8B09A"/>
<path transform="translate(996,92)" d="m0 0h13v27h-1l-1-22-1-3h-4l-1 3v-2l-4-1z" fill="#0D0F06"/>
<path transform="translate(205,75)" d="m0 0h3v8l-9-2-2-4z" fill="#050902"/>
<path transform="translate(1328,59)" d="m0 0 2 2 1 5v12l-2 1-2-3v-12z" fill="#041704"/>
<path transform="translate(439,165)" d="m0 0 2 1v7l-2 2-4 1h-12l2-2h11v-7h3z" fill="#061C06"/>
<path transform="translate(1307,126)" d="m0 0h1l1 20v23h-1l-1-18h-2z" fill="#485438"/>
<path transform="translate(908,54)" d="m0 0h20v3h-20z" fill="#22451E"/>
<path transform="translate(813,171)" d="m0 0h15v3l-2 1h-13z" fill="#060F03"/>
<path transform="translate(403,164)" d="m0 0h21l1 2-6 1-14 1v-3z" fill="#1F2613"/>
<path transform="translate(125,143)" d="m0 0h1v5l6 2 3 2v2h-9l-2-1v-9z" fill="#68614D"/>
<path transform="translate(515,140)" d="m0 0 5 5-1 2h-2l-1 4h-4l-3 3 3-9z" fill="#2F301F"/>
<path transform="translate(96,78)" d="m0 0h4v7l-5 2-3-2v-5z" fill="#060C03"/>
<path transform="translate(944,33)" d="m0 0h45v1l-21 1-4 1-20-2z" fill="#B8B19B"/>
<path transform="translate(203,189)" d="m0 0 3 2-4 1-1 7-4-1-1-4-4 2 1-4 9-2z" fill="#2B5124"/>
<path transform="translate(167,150)" d="m0 0h1v15l-3 1-18-1v-2h20z" fill="#3F492E"/>
<path transform="translate(573,143)" d="m0 0h1v11l-2 4-1-2h-8l-5-1v-2l6-1 8 1z" fill="#324326"/>
<path transform="translate(1420,114)" d="m0 0 2 2-1 9 1 1 1-3 2 4v6l-1 2-5-2 2-5h-3z" fill="#C2BBA6"/>
<path transform="translate(557,91)" d="m0 0h2l2 7-1 7h-2l-1 5h-1v-17z" fill="#051103"/>
<path transform="translate(1e3 32)" d="m0 0 4 2 1 2v9l-1-2-5-1v-9z" fill="#050F03"/>
<path transform="translate(243,161)" d="m0 0h2l-2 5-1 2h2l1 8-4 3-2-7v-3z" fill="#10290D"/>
<path transform="translate(363,112)" d="m0 0 3 3-1 8-1 3-4 3v-11z" fill="#041804"/>
<path transform="translate(775,86)" d="m0 0h26l3 2-24 1-5-1z" fill="#3E412C"/>
<path transform="translate(255,74)" d="m0 0 3 1-1 6-4 6-3-3 1-6h2z" fill="#212715"/>
<path transform="translate(174,58)" d="m0 0 2 2v10l-1 13-2 8-1-3h-2v-5l2 1 1-4v-18z" fill="#B8B09A"/>
<path transform="translate(1511,179)" d="m0 0 3 1-8 3h-15v-3z" fill="#031703"/>
<path transform="translate(554,162)" d="m0 0h2l1 12h-5l1-6-16-1v-1h17z" fill="#0B1D08"/>
<path transform="translate(1361,158)" d="m0 0 2 3 2-1 1 2 3-3 1 5h2l-1 3h-13z" fill="#B8B39C"/>
<path transform="translate(941,152)" d="m0 0h6v3l-5 2-2 2-4 1-1 5h-1v-6h2v-3h2v-2z" fill="#2A3C1E"/>
<path transform="translate(531,143)" d="m0 0h1v17l-1-3-4-1h3l-3-4v-6z" fill="#252D19"/>
<path transform="translate(630,137)" d="m0 0 3 1v6h-12l1-6 9 2z" fill="#061D06"/>
<path transform="translate(438,136)" d="m0 0 3 1v14h-4v-11z" fill="#10180A"/>
<path transform="translate(548,51)" d="m0 0h7v4h-28v-1l21-1z" fill="#153B17"/>
<path transform="translate(849,171)" d="m0 0h2v2h11l8 2v1h-20z" fill="#1A1E0E"/>
<path transform="translate(1123,165)" d="m0 0 8 1v5l-1-2-21-1-1-2z" fill="#3A412A"/>
<path transform="translate(124,136)" d="m0 0 1 3-2 4-1 10 1 5-5 2-1 2-1-4 3-1 2-16z" fill="#191C0E"/>
<path transform="translate(809,107)" d="m0 0h1v27l-4-5-1-4 2-3h2z" fill="#212514"/>
<path transform="translate(613,112)" d="m0 0 2 1-1 4-6 7h-3l-5 4 2-4z" fill="#65614C"/>
<path transform="translate(750,91)" d="m0 0 1 2h10l-3 2-5 2-2 14-2-1v-10h1z" fill="#415334"/>
<path transform="translate(215,204)" d="m0 0h18l9 1v1l-33 1v-1z" fill="#26411F"/>
<path transform="translate(252,150)" d="m0 0 2 1v8l-9 1 1-4h2v-2h2z" fill="#43432E"/>
<path transform="translate(148,118)" d="m0 0 1 2-2 11h-2l-3-6 1-5z" fill="#26311C"/>
<path transform="translate(1351,184)" d="m0 0 11 1 2-1-2 5h-13l-1-2h2z" fill="#0B3913"/>
<path transform="translate(555,118)" d="m0 0h1l2 18-2 3h-2v-20z" fill="#162410"/>
<path transform="translate(1071,107)" d="m0 0 3 3 3 5-1 2-3-3-1 28h-1z" fill="#4A4A35"/>
<path transform="translate(1368,105)" d="m0 0h1l1 12h1l-1 8h-3l-1-5v-7l1-4z" fill="#BAB7A0"/>
<path transform="translate(1345,88)" d="m0 0h1v12l-2 3-3-5 1-8z" fill="#061C06"/>
<path transform="translate(462,23)" d="m0 0h4v2h2l-1 3-2 1 1 8h-2l-2-6-3-2 1-2h2z" fill="#32552C"/>
<path transform="translate(850,177)" d="m0 0h19l-3 4-5 1-5-2-2-1-1 1-1-2z" fill="#334025"/>
<path transform="translate(1176,168)" d="m0 0h17l-4 3h-13l-6-1v-1z" fill="#141309"/>
<path transform="translate(841,151)" d="m0 0 8 1v4h-10l-4-2h2v-2z" fill="#29401F"/>
<path transform="translate(657,96)" d="m0 0h1v21l-3 1v-15z" fill="#041604"/>
<path transform="translate(455,175)" d="m0 0 7 1 4 4-9 1-7-1z" fill="#22451E"/>
<path transform="translate(350,167)" d="m0 0h7l-1 7-5 1-2-2z" fill="#061C06"/>
<path transform="translate(506,155)" d="m0 0 21 1-2 2-18 1-3 4 1-6z" fill="#10280C"/>
<path transform="translate(1074,130)" d="m0 0 4 2 6 8v2h-2v-3l-8-1z" fill="#3D402B"/>
<path transform="translate(886,114)" d="m0 0 2 3-10 11-5 5 2-6 9-10z" fill="#545B41"/>
<path transform="translate(441,105)" d="m0 0 6 1-3 1-1 12-3 2v-15z" fill="#041804"/>
<path transform="translate(1097,86)" d="m0 0h6l-3 3-8 2-9-2-2-2z" fill="#2D381F"/>
<path transform="translate(1069,82)" d="m0 0h6l-3 1v2l-8 2-5-1-4-3z" fill="#16170B"/>
<path transform="translate(157,51)" d="m0 0h6l1 2-7 1v10l-2 12h-1v-10l1-11z" fill="#405A36"/>
<path transform="translate(618,64)" d="m0 0h7l1 1v5l-8 1z" fill="#2C5225"/>
<path transform="translate(492,51)" d="m0 0 3 1v2h5l1 1v6h-1v-5l-17-1-1-3z" fill="#113C17"/>
<path transform="translate(709,148)" d="m0 0h1l1 20 1 3-11-3v-2l4-1 4 1z" fill="#425936"/>
<path transform="translate(1309,147)" d="m0 0h1l1 6 2 2-2 4 2 1-1 8-3 1z" fill="#B9B29C"/>
<path transform="translate(1477,127)" d="m0 0 9 2 4 3v2l4-1v7l-1-4-7-2-1-2-9-3z" fill="#061C06"/>
<path transform="translate(752,86)" d="m0 0h13l2 1v2l2 1-6 2v-3h-11z" fill="#272C19"/>
<path transform="translate(696,74)" d="m0 0h16v3h-12l-9-1v-1z" fill="#68614D"/>
<path transform="translate(275,167)" d="m0 0h7l1 5-5 2h-8l-3-1 1-2h9v-3z" fill="#061303"/>
<path transform="translate(751,166)" d="m0 0 16 1v2l-4 1h-12z" fill="#2A2B1A"/>
<path transform="translate(226,119)" d="m0 0h1l1 7 4-4-2 6-6 10h-2l3-11z" fill="#B8B19B"/>
<path transform="translate(1372,114)" d="m0 0 3 3h3l-1 14-2-4-3-3z" fill="#041704"/>
<path transform="translate(699,91)" d="m0 0 5 1v3l2 1-1 2 2 1-9 1z" fill="#2A3C1E"/>
<path transform="translate(1050,83)" d="m0 0 6 2 1 2-1 6h-5z" fill="#060E04"/>
<path transform="translate(1476,75)" d="m0 0h6l-1 3h6l3-1 6 1v1l-8 1h-10l-3-1z" fill="#17200E"/>
<path transform="translate(251,63)" d="m0 0v3l-1 3h13l1 3-3 1v-2l-11 1-2-2 1-5z" fill="#B8B39C"/>
<path transform="translate(1436,204)" d="m0 0h7l-4 4-3 2h-17l4-3 7 1 4 1z" fill="#294E23"/>
<path transform="translate(678,202)" d="m0 0 9 3 9 1v1h-19v-4z" fill="#3C6940"/>
<path transform="translate(471,162)" d="m0 0 4 2 3 5v4l-4-1-3-3v-3l-2-1z" fill="#2C3C1F"/>
<path transform="translate(280,158)" d="m0 0h1l-1 7-9-1-12-2v-3l1 1 15 1 4 1z" fill="#595C43"/>
<path transform="translate(254,160)" d="m0 0 4 1v11l-2-2-3-4v-2h-2v-3z" fill="#102B0D"/>
<path transform="translate(73,140)" d="m0 0h1l2 10v5l-8-2 2-4 2-2z" fill="#364127"/>
<path transform="translate(285,108)" d="m0 0h1l2 13-2 8-2-2v-14z" fill="#091C07"/>
<path transform="translate(419,92)" d="m0 0h1l-1 26h-1v-6h-6v-2h5l-3-3 3-1z" fill="#373E27"/>
<path transform="translate(1434,97)" d="m0 0 3 4v8l-3 4-1-1v-14z" fill="#051003"/>
<path transform="translate(231,77)" d="m0 0h1v27l3 1h-4l-2 4v-8l1-5z" fill="#444630"/>
<path transform="translate(101,81)" d="m0 0h1l-1 8-4 4-4-5-3-3 1-2 4 3 6-1z" fill="#273A1E"/>
<path transform="translate(1350,133)" d="m0 0h1l1 11v13l-3 3z" fill="#5E6A4F"/>
<path transform="translate(606,122)" d="m0 0v3l-6 8-1 2-6 3 2-5 4-5z" fill="#9C9A83"/>
<path transform="translate(175,93)" d="m0 0 1 2h2l1 7-1 4h-4z" fill="#041704"/>
<path transform="translate(872,88)" d="m0 0h10l-2 8-4-2-4-4z" fill="#212516"/>
<path transform="translate(1159,79)" d="m0 0 4 1-1 1 1 5h-7l-2-6z" fill="#020801"/>
<path transform="translate(1268,54)" d="m0 0 4 1h-3v8l-3 12h-1v-9l1-9z" fill="#385731"/>
<path transform="translate(1044,159)" d="m0 0h4v3h-2l2 7 2 1-3 1-3-2v-3l-2-1 1-4z" fill="#25411E"/>
<path transform="translate(255,118)" d="m0 0 1 4-6 14-5 6v-3l5-8 3-9z" fill="#484A34"/>
<path transform="translate(904,120)" d="m0 0h3v16h-2v4l-3 1 1-7h2v-2l-2-1v-4l2-2 1-4z" fill="#061C06"/>
<path transform="translate(1408,106)" d="m0 0 2 3v10l-2 3-3-5z" fill="#051905"/>
<path transform="translate(1131,85)" d="m0 0h1l1 17 2-9h1l-1 13h-2v2h-2z" fill="#061C06"/>
<path transform="translate(882,88)" d="m0 0 4 1-2 4-1 7-4-2 1-8z" fill="#0B2009"/>
<path transform="translate(661,62)" d="m0 0 10 1 1 1v7l-5-5-2 2-4-4z" fill="#21441D"/>
<path transform="translate(1453,59)" d="m0 0 6 1-1 7-3 4-2-9-2-2z" fill="#061D06"/>
<path transform="translate(643,50)" d="m0 0 3 1 1 6h-10v10h-1v-12h7z" fill="#6D7B5E"/>
<path transform="translate(491,180)" d="m0 0h21l1 2 4 2-5 1-2-2-11-1h-6z" fill="#22451E"/>
<path transform="translate(1329,169)" d="m0 0 7 1 2 5-1 3-5 1v-2h4v-2l-4 1v-2h-2z" fill="#061C06"/>
<path transform="translate(849,165)" d="m0 0h26v1h-25l-1 7-3-1 1-4z" fill="#383E27"/>
<path transform="translate(801,157)" d="m0 0 3 3 2 4h24v2h-25l-5-5-1-2h2z" fill="#414630"/>
<path transform="translate(714,164)" d="m0 0h10l5 1-4 2-1 1h-11l2-2z" fill="#3A5B33"/>
<path transform="translate(774,134)" d="m0 0 8 6v2l-8 1z" fill="#2C2E1C"/>
<path transform="translate(1091,13)" d="m0 0 19 1-3 3-17-1-1-2z" fill="#031503"/>
<path transform="translate(1049,164)" d="m0 0 17 1v2l-14 1-4 1z" fill="#454A33"/>
<path transform="translate(1324,159)" d="m0 0h2v6l3 1h-16l4-2-1-4h2l1 4h5z" fill="#B8B59D"/>
<path transform="translate(1517,169)" d="m0 0 3 1v3l-6 1v-2h-23v-1h26z" fill="#051003"/>
<path transform="translate(204,109)" d="m0 0h2l1 2v8l-2 10h-1z" fill="#385630"/>
<path transform="translate(1530,57)" d="m0 0h19l5 2-3 2-8 1v-2l2-1-15-1z" fill="#0B3913"/>
<path transform="translate(714)" d="m0 0h29v1l-18 1v1h-7v-2z" fill="#273F1E"/>
<path transform="translate(584,174)" d="m0 0 8 1 1 4-2 2-1-3-4 1-5-3z" fill="#2F3E22"/>
<path transform="translate(789,138)" d="m0 0 4 5 7 10 1 4-3-1v-4l-3-1-6-9z" fill="#44432F"/>
<path transform="translate(284,138)" d="m0 0h2v14h-3v-13z" fill="#050E02"/>
<path transform="translate(29,128)" d="m0 0 7 2-1 3-11-1-2-3z" fill="#24481F"/>
<path transform="translate(415,120)" d="m0 0h3v14l-3 1z" fill="#374328"/>
<path transform="translate(333,84)" d="m0 0 5 2v4h-10l2-1 1-4z" fill="#2B3A1F"/>
<path transform="translate(1432,75)" d="m0 0 2 1 1 3v10l-1 2h-2z" fill="#051003"/>
<path transform="translate(735,64)" d="m0 0h19l-1 5-1-3h-17z" fill="#2D5028"/>
<path transform="translate(203,56)" d="m0 0h22l-3 2-16 1z" fill="#B8B29B"/>
<path transform="translate(796,161)" d="m0 0h2v2h2l3 7v6h-2l-2-3v-6l-3-2z" fill="#615E48"/>
<path transform="translate(143,163)" d="m0 0h4l1 6-1 3-7-2v-3l4 1z" fill="#3C3D28"/>
<path transform="translate(837,163)" d="m0 0h2v2l4 1-2 5-6 2 2-7z" fill="#2A3D1F"/>
<path transform="translate(749,156)" d="m0 0h1v8l-9-1v-4h8z" fill="#68614D"/>
<path transform="translate(1348,154)" d="m0 0 4 3v11l4-3h2v2l-3 2h-4v-5l-2-1-1-2z" fill="#394F2E"/>
<path transform="translate(1086,131)" d="m0 0 5 4 6 9-2 1-5-5-4-7z" fill="#B8B39C"/>
<path transform="translate(1132,124)" d="m0 0 1 2h2l1 4-2 14h-1z" fill="#061D06"/>
<path transform="translate(1471,124)" d="m0 0h16l6 5-1 3-2-1v-2h-2l-1-2-16-2z" fill="#060F03"/>
<path transform="translate(415,73)" d="m0 0h6v5h-19v-1h14z" fill="#3E3D29"/>
<path transform="translate(193,64)" d="m0 0h2v7l13-1 1 3-14 1-2-2z" fill="#63614B"/>
<path transform="translate(296,61)" d="m0 0 6 1v3l-5 1-8-2v-2z" fill="#22441E"/>
<path transform="translate(1350,202)" d="m0 0 5 2 1 2-7 1h-11v-1l9-2z" fill="#2C5225"/>
<path transform="translate(1362,166)" d="m0 0h11l-1 4h-5v-2l-3 1-8-1v-1z" fill="#293F21"/>
<path transform="translate(769,166)" d="m0 0h11l1 4h-8v-2h-4z" fill="#3D3B28"/>
<path transform="translate(1269,163)" d="m0 0h17l6 1v1l-18 1-6-1z" fill="#22451E"/>
<path transform="translate(1094,147)" d="m0 0 4 2 9 14-1 2-9-12z" fill="#3E472E"/>
<path transform="translate(123,144)" d="m0 0h1v9l11 1-2-4 2-2 3 4v2l-2 1h-12l-1-1z" fill="#474C34"/>
<path transform="translate(1432,100)" d="m0 0h1l-1 13h-2l-2-6 2-5z" fill="#BBB7A0"/>
<path transform="translate(1475,74)" d="m0 0h10l6 2-4 3-6-1v-2l-5-1-1 2z" fill="#353925"/>
<path transform="translate(1373,166)" d="m0 0 4 1-1 4-9 9-3-2 4-1 4-8z" fill="#041804"/>
<path transform="translate(589,174)" d="m0 0h14l-1 4-9-1z" fill="#403F2B"/>
<path transform="translate(972,170)" d="m0 0 5 1 1 5-7 1z" fill="#061C06"/>
<path transform="translate(1166,163)" d="m0 0 1 3h20v1l-19 1-1 4h-2v-8z" fill="#495037"/>
<path transform="translate(806,166)" d="m0 0 9 2 14 1 1-3v4h-21z" fill="#313320"/>
<path transform="translate(710,163)" d="m0 0h19v1l-13 1-3 3-3 1z" fill="#66604C"/>
<path transform="translate(571,155)" d="m0 0 2 3-1 3h-13v-2l3-1h7l-3-2z" fill="#143212"/>
<path transform="translate(986,123)" d="m0 0 1 2 7 1 3 2-3 2-6-1-3-1z" fill="#39482C"/>
<path transform="translate(177,76)" d="m0 0 2 1 1 9-2 6h-1l-1-11z" fill="#061A05"/>
<path transform="translate(558,67)" d="m0 0 4 1 1 2v8l-3 8h-1v-6l2-6-1-4-2-1-1 2z" fill="#071D07"/>
<path transform="translate(1247,61)" d="m0 0 2 4 1 3v8l-1 2h-2z" fill="#061C06"/>
<path transform="translate(564,65)" d="m0 0 7 1 2 1-1 4-7-1z" fill="#244720"/>
<path transform="translate(1462,54)" d="m0 0 1 4-3 7h-1v-5h-3v-4z" fill="#2D4C27"/>
<path transform="translate(1245,172)" d="m0 0 3 1h-2v3l-2 1h-16l5-4h3v2h7z" fill="#051804"/>
<path transform="translate(1168,169)" d="m0 0 8 1-3 2v4h-6l-1-3z" fill="#050502"/>
<path transform="translate(981,140)" d="m0 0h4l1 7-2 1-4-2v-5z" fill="#0F1408"/>
<path transform="translate(986,127)" d="m0 0 2 1v2l2 1-2 5-4-1v-6z" fill="#0E1308"/>
<path transform="translate(34,78)" d="m0 0 4 2v8l-2 1-2-1-1-9z" fill="#23471F"/>
<path transform="translate(1386,56)" d="m0 0h22v1l-18 1 3 1v2l-6-1z" fill="#B8B29B"/>
<path transform="translate(1107,28)" d="m0 0 5 5-3 3-4-1-1-4z" fill="#3A673D"/>
<path transform="translate(1478,165)" d="m0 0 2 3 4-2v2h3v2l4 1h-13z" fill="#1E2613"/>
<path transform="translate(741,156)" d="m0 0h7l1 3h-8v4h-3l-1-3z" fill="#454B33"/>
<path transform="translate(252,146)" d="m0 0 5 2h1v7l-2 1-1-5-4 1-2 2 1-5h2z" fill="#282B19"/>
<path transform="translate(201,147)" d="m0 0h1v5l-6 2-3-1 2-5 5 1z" fill="#2B4020"/>
<path transform="translate(1553,140)" d="m0 0 9 1v3l-3 1h-5z" fill="#0B3913"/>
<path transform="translate(116,125)" d="m0 0 4 4-1 2-3-2v24h-1v-26z" fill="#4B4C37"/>
<path transform="translate(228,110)" d="m0 0h1l1 11 2 1-4 6h-1v-9z" fill="#54533D"/>
<path transform="translate(385,62)" d="m0 0 2 4 1 14-1 5-2-2v-7l1-2z" fill="#324225"/>
<path transform="translate(248,65)" d="m0 0 1 2 1 4h11l-2 4v-2l-7 1h-3l-2-3v-5z" fill="#66604C"/>
<path transform="translate(237,69)" d="m0 0 2 3v5l-5 1v-7z" fill="#061C06"/>
<path transform="translate(730,145)" d="m0 0 4 2v6l-2 3h-2z" fill="#202814"/>
<path transform="translate(1188,122)" d="m0 0h1l1 17 2 3 3 2h-7z" fill="#041904"/>
<path transform="translate(860,106)" d="m0 0h2l4 5-1 4-4-1-2-6z" fill="#090A04"/>
<path transform="translate(191,107)" d="m0 0h15l1 4-1-2h-2l-1 4v-4h-10z" fill="#22451E"/>
<path transform="translate(1377,87)" d="m0 0h28v1l-26 1-5 1z" fill="#031303"/>
<path transform="translate(1397,60)" d="m0 0 10 1 1 3-1 2-7 1-1-2 4-1-6-3z" fill="#B8B69E"/>
<path transform="translate(945,42)" d="m0 0 7 4 4 2-6 2-5-3z" fill="#061C06"/>
<path transform="translate(381,30)" d="m0 0h3l1 5 9 1 1 2-9 1-3-1v-6h-2z" fill="#394F2E"/>
<path transform="translate(90,203)" d="m0 0h2v2h8v1h-20v-2z" fill="#3B683F"/>
<path transform="translate(406,167)" d="m0 0h8l1 2-8-1 1 2 9 3v1h-9l-2-2z" fill="#141409"/>
<path transform="translate(1474,149)" d="m0 0 1 3 2 5 4 3v2h-5l-3-7v-5z" fill="#4C6D4A"/>
<path transform="translate(1493,143)" d="m0 0 1 3-1 1h-10l-6-1 1-2h7l4 2 1-2 3 1z" fill="#375430"/>
<path transform="translate(883,121)" d="m0 0 2 1-3 2zm-2 3h1l1 8-5-2v2l-3-1z" fill="#091205"/>
<path transform="translate(1108,116)" d="m0 0h1v11l-5-5 2-4z" fill="#15180C"/>
<path transform="translate(474,105)" d="m0 0h2v19h-1l-2-17-2-1z" fill="#0A1606"/>
<path transform="translate(703,87)" d="m0 0h7v5l-7-1-1-3z" fill="#3F3E2A"/>
<path transform="translate(821,49)" d="m0 0h7l4 7-5-1-1-2-5-2z" fill="#061C06"/>
<path transform="translate(949,41)" d="m0 0h8l5 3v1h-8z" fill="#020801"/>
<path transform="translate(502,167)" d="m0 0 1 4 1 2-1 3h-2l-1 2-2-1 1-6h2z" fill="#1E2412"/>
<path transform="translate(735,157)" d="m0 0 1 2-2 8h2v5h-2l-2-4h-1l1-8z" fill="#2D3B20"/>
<path transform="translate(555,138)" d="m0 0 2 1 1 4v9l-2-4-2-3v-6z" fill="#031603"/>
<path transform="translate(250,126)" d="m0 0 1 2-10 16-1-2 5-10z" fill="#B8B29B"/>
<path transform="translate(657,121)" d="m0 0 2 1-1 11-1 5-2 2v-10l1-2z" fill="#061C06"/>
<path transform="translate(263,104)" d="m0 0 2 1-1 19h-1l-1-13-1-3z" fill="#B8B39C"/>
<path transform="translate(886,81)" d="m0 0h2v8l-6-1 2-6z" fill="#020C02"/>
<path transform="translate(464,78)" d="m0 0h5v5l2 2h-7z" fill="#050502"/>
<path transform="translate(162,67)" d="m0 0 5 2-2 7h-2l-2-3v-5z" fill="#B8B19B"/>
<path transform="translate(1410,185)" d="m0 0 11 1 1 2-5 1h-6l-2-3z" fill="#0B3913"/>
<path transform="translate(1471,167)" d="m0 0 2 3 4 7 4 2-3 1-5-3-3-7z" fill="#061C06"/>
<path transform="translate(1516,165)" d="m0 0 2 2-5 1h-10l-3-2z" fill="#313521"/>
<path transform="translate(676,165)" d="m0 0 7 1v3h-12l1-3z" fill="#2C5225"/>
<path transform="translate(200,164)" d="m0 0h2l1 2h5l-1 5h-4l-3-4z" fill="#403E2A"/>
<path transform="translate(333,162)" d="m0 0h20v1l-15 1-1 5-3-4z" fill="#485036"/>
<path transform="translate(679,151)" d="m0 0 1 2h3l2 2 1 4h-2v-2h-6l-1-4h2z" fill="#2B5124"/>
<path transform="translate(522,150)" d="m0 0 6 3v2h-11z" fill="#403E2A"/>
<path transform="translate(871,137)" d="m0 0h3l2 5 4 2h-9z" fill="#040501"/>
<path transform="translate(230,106)" d="m0 0h1l1 9 1 5-3 1-1-4v-8z" fill="#0B0C05"/>
<path transform="translate(1105,106)" d="m0 0h1v6l-3 4-2 2-2-5 4-1z" fill="#222815"/>
<path transform="translate(1156,75)" d="m0 0h7v3h-13l1-2z" fill="#22451E"/>
<path transform="translate(464,74)" d="m0 0 10 1 4 3h-15z" fill="#384E2D"/>
<path transform="translate(1123,203)" d="m0 0h16l1 2-6 1-11-2z" fill="#355D34"/>
<path transform="translate(242,177)" d="m0 0h5l3 3h-3v2l-8-1 3-1z" fill="#323F24"/>
<path transform="translate(81,164)" d="m0 0h3v10l-3 5h-2v-4l3-2z" fill="#2C3A1F"/>
<path transform="translate(549,159)" d="m0 0 3 1 1 4h-20v-1l16-1z" fill="#B8B49C"/>
<path transform="translate(1433,112)" d="m0 0h4l2 6-1 4-3-2v-4l-2 2z" fill="#0D270C"/>
<path transform="translate(173,111)" d="m0 0 2 2 1 10-2 1-1 3-1-6z" fill="#061C06"/>
<path transform="translate(698,86)" d="m0 0h10v1l-5 1v3h-5l-1-4z" fill="#303E23"/>
<path transform="translate(609,75)" d="m0 0h7v4l-9-1v-2z" fill="#324325"/>
<path transform="translate(1458,65)" d="m0 0 1 3-3 12-1-2-2-1 2-6z" fill="#264122"/>
<path transform="translate(1187,67)" d="m0 0 3 1 1 2v16h-1v-14h-2l-1 2z" fill="#061C06"/>
<path transform="translate(944,41)" d="m0 0 7 1 5 4-4 1-5-3z" fill="#051003"/>
<path transform="translate(782,9)" d="m0 0 4 5 7 2v1h-11z" fill="#041103"/>
<path transform="translate(89,3)" d="m0 0 8 1 4 2-1 2-12-1z" fill="#061C06"/>
<path transform="translate(619,203)" d="m0 0h10l2 2-5 1h-8z" fill="#3B683F"/>
<path transform="translate(1044,196)" d="m0 0 2 1 1-1h4l-1 5-1-2h-9l-3-2z" fill="#326035"/>
<path transform="translate(783,176)" d="m0 0 1 3 2 1-6 2-3-2v-3z" fill="#22451E"/>
<path transform="translate(1243,169)" d="m0 0h7l-1 3-4 1-2 3h-2l1-4z" fill="#041203"/>
<path transform="translate(78,164)" d="m0 0 2 4 2-2 1 7-4 2z" fill="#353F25"/>
<path transform="translate(258,163)" d="m0 0h1v12l3 1-6 1-2-2 1-2h3z" fill="#323E24"/>
<path transform="translate(786,165)" d="m0 0 8 1 1 2h-2l-5 5v-3l1-2h-2z" fill="#3C3C28"/>
<path transform="translate(127,142)" d="m0 0 4 1 3 4-1 3-2-2-4-1z" fill="#353523"/>
<path transform="translate(778,132)" d="m0 0 3 1 4 8v2h-6l3-1-4-8z" fill="#3C4D2F"/>
<path transform="translate(1346,111)" d="m0 0 2 1v8l-2 3-2-7z" fill="#061C06"/>
<path transform="translate(1105,95)" d="m0 0 2 2-1 5h2v4h-3l-2-6v-2h2z" fill="#1B2611"/>
<path transform="translate(985,92)" d="m0 0h11l3 2-7 1-7-1z" fill="#1A1C0D"/>
<path transform="translate(289,75)" d="m0 0h2v7l-4 1-1-1v-5h3z" fill="#041804"/>
<path transform="translate(1149,72)" d="m0 0 1 2h16l-1 3v-2l-17 1z" fill="#425B37"/>
<path transform="translate(271,71)" d="m0 0 12 1 4 2-2 1-10-1-4-2z" fill="#68614D"/>
<path transform="translate(827,33)" d="m0 0 2 4 2 5-1 7-2-1v-4l-2-2z" fill="#061B06"/>
<path transform="translate(147,167)" d="m0 0 4 4-1 3-7-1-2-1 1-2 5 1z" fill="#323E24"/>
<path transform="translate(914,168)" d="m0 0h9v4l-9-1z" fill="#020701"/>
<path transform="translate(477,166)" d="m0 0 11 1-3 1-1 3h-5z" fill="#030601"/>
<path transform="translate(1431,142)" d="m0 0 2 3-2 7-4 1 1-4-1-2h3z" fill="#B8B49D"/>
<path transform="translate(1076,138)" d="m0 0 6 1v3h-9l1-3z" fill="#1D2110"/>
<path transform="translate(559,109)" d="m0 0 1 4-1 9-2 5h-1v-8z" fill="#061C06"/>
<path transform="translate(1430,88)" d="m0 0h1l1 5h1v7l-3 1-1-8-1-3h2z" fill="#B8B49D"/>
<path transform="translate(809,96)" d="m0 0h1v10l-4-3-1-4z" fill="#2C2D1C"/>
<path transform="translate(1188,72)" d="m0 0h2v10l-3 1v-9z" fill="#031503"/>
<path transform="translate(329,72)" d="m0 0h13v1l-8 1v2l-5-1z" fill="#64604B"/>
<path transform="translate(462,35)" d="m0 0h2v2l3 1-1 7h-2v-5h-3z" fill="#23471F"/>
<path transform="translate(154,3)" d="m0 0h7l2 2-13 2-5-1 1-2h6z" fill="#061C06"/>
<path transform="translate(88,171)" d="m0 0h10l-4 4h-5z" fill="#1F2613"/>
<path transform="translate(551,168)" d="m0 0h2l-1 6h-10v-1l7-1z" fill="#060F03"/>
<path transform="translate(507,158)" d="m0 0h5v2l-4 2-1 2h4l-1 2-5-2 1-5z" fill="#333D24"/>
<path transform="translate(195,152)" d="m0 0 1 2 5-1v2h-2v5h-2l-3-4z" fill="#334126"/>
<path transform="translate(255,140)" d="m0 0h2v3h2v7l-3-1-2-7z" fill="#2E301E"/>
<path transform="translate(1072,129)" d="m0 0 3 1-1 8 2 1h-2l-1 3h-1z" fill="#16160A"/>
<path transform="translate(875,133)" d="m0 0 2 2 1 8-3-1-1-5-2-1z" fill="#050F03"/>
<path transform="translate(283,119)" d="m0 0h1l2 17h-3z" fill="#50523B"/>
<path transform="translate(1435,120)" d="m0 0 3 1v6l-2 7h-1z" fill="#041103"/>
<path transform="translate(599,90)" d="m0 0h7v5h-2l-1 2-4-5z" fill="#242916"/>
<path transform="translate(205,75)" d="m0 0h3v7l-5-2v-4z" fill="#020801"/>
<path transform="translate(955,46)" d="m0 0h11v1l-7 2-5 2v-3z" fill="#1A1B0D"/>
<path transform="translate(1015)" d="m0 0h11l-1 3h-9z" fill="#27391C"/>
<path transform="translate(225,197)" d="m0 0 8 1v2h-13l4-2z" fill="#2C5225"/>
<path transform="translate(630,137)" d="m0 0 3 1v6h-12v-1h9z" fill="#081605"/>
<path transform="translate(91,129)" d="m0 0 2 3 2 6 2-3v8h-2l-4-10z" fill="#B8B29B"/>
<path transform="translate(1424,127)" d="m0 0h1v6l-1 2-5-2 2-4h3z" fill="#B8B49D"/>
<path transform="translate(1432,122)" d="m0 0h2l-1 3-2 2-1 5h-3l2-9z" fill="#B8B19B"/>
<path transform="translate(1247,123)" d="m0 0h2v17h-1l-1-9-1-3z" fill="#A6A28B"/>
<path transform="translate(613,112)" d="m0 0 2 1-1 4-4 3-1-4z" fill="#546A4B"/>
<path transform="translate(1493,112)" d="m0 0h1v21h-1l-1-16-1-3z" fill="#373826"/>
<path transform="translate(1513,91)" d="m0 0h1v13h2v5l-2 1-1-4z" fill="#4F5A3E"/>
<path transform="translate(264,50)" d="m0 0h6l6 2v1h-13z" fill="#061C06"/>
<path transform="translate(892)" d="m0 0h13l-2 1-1 2-10-1z" fill="#22451E"/>
<path transform="translate(403,164)" d="m0 0h9v2l2 1-9 1v-3z" fill="#19200E"/>
<path transform="translate(899,138)" d="m0 0 2 3-1 2h-11v-2h7z" fill="#051B05"/>
<path transform="translate(519,131)" d="m0 0 3 1-1 5-4 2-1 3 1-6z" fill="#303922"/>
<path transform="translate(616,136)" d="m0 0 2 1 1 7h-5z" fill="#060E03"/>
<path transform="translate(93,115)" d="m0 0h4l-1 5-1-2h-2v2h-2v5h-1v-6z" fill="#3E3D2A"/>
<path transform="translate(1224,95)" d="m0 0h1v16l-6-2 3-2h2z" fill="#031703"/>
<path transform="translate(364,76)" d="m0 0 1 3 1 7-3 3v-12z" fill="#041904"/>
<path transform="translate(246,67)" d="m0 0 2 4 1 5h4v2l-5 2-2-7z" fill="#323D24"/>
<path transform="translate(272,73)" d="m0 0 9 2 4 4v2l-4-2-4-3-5-2z" fill="#B8B29B"/>
<path transform="translate(398,51)" d="m0 0 9 2v1l-13 1-4-2 4-1z" fill="#313321"/>
</svg>
